<?xml version="1.0" encoding="utf-8"?>

<!DOCTYPE svg PUBLIC "-//W3C//DTD SVG 1.1//EN" "http://www.w3.org/Graphics/SVG/1.1/DTD/svg11.dtd">
<svg version="1.1" id="Layer_1" xmlns="http://www.w3.org/2000/svg" xmlns:xlink="http://www.w3.org/1999/xlink" x="0px" y="0px"
	 viewBox="0 0 2592 1944" enable-background="new 0 0 2592 1944" xml:space="preserve">
<g>
	<path fill="#0E0E0E" d="M2257.73,0h76.53c2.6001,3.1,4.95,6.44,6.76,10.09c6.6799-2.85,12.6499-7.1,19.28-10.09h120.48
		c-0.1599,2.7-0.1201,5.46-0.99,8.06c-3.0801,9.4-0.6699,19.33,1.3599,28.67c1.6602,5.21,2.29,10.84,5.26,15.55
		c3.1401,5.12,5.02,10.84,7.6602,16.21c1.4399-4.65,2.4399-9.49,4.9099-13.75c3.5901-6.39,5.52-13.5,7.3801-20.54
		c1.5498-6.07,4.45-11.71,8.0298-16.83c3.9502-4.99,1.8801-11.88,4.6802-17.37h47.5598c-3.2,4.83-8,8.18-11.7598,12.49
		c5.0798-0.41,10.1199-1.62,14.75-3.83c6.95-3.3,14.1799-5.97,21.3899-8.66h0.99v451.93c-3.5701,9.87-4.1399,21.03-10.5901,29.67
		c0.2102-4.29,0.0601-8.58-0.5398-12.84c-0.1702-6.58,0.5598-13.16,0.3999-19.75c-0.27-9.49,1.8-18.9,0.95-28.37
		c-6.48,7.47-11.99,15.74-18.0601,23.56c-14.7998,19.13-29.45,38.41-45.48,56.54c-3.78,3.81-7.23,8.13-12,10.74
		c0.9402-3.9,3.9001-6.73,6.04-9.99c4.48-6.76,9.75-12.98,13.95-19.94c7.96-12.28,14.99-25.13,22.47-37.71
		c11.6501-19.38,22.5901-39.18,33.7202-58.86c3.0999-4,2.72-9.24,3.26-14c0.46-8.32,1.0798-16.63,1.0398-24.96
		c-0.1099-3.3,0.8501-7.38-2.1699-9.7c-2.0901-1.53-4.9099-5.44-7.52-2.92c-4.27,2.58-6.3401,7.26-8.8999,11.29
		c-3.6501,6.33-6.95,12.89-11.3801,18.72c-3.53,4.4-6.1499,9.68-10.97,12.87c-3.8599,2.48-4.53,7.31-5.8699,11.31
		c-3.4502,9.78-5.8101,20.01-10.74,29.21c-4.6001,10.12-12.2202,18.37-18.03,27.76c-1.6201,2.24-2.77,5.23-5.75,5.91
		c1.3799-4.65,3.77-8.92,5.1499-13.58c2.51-7.74,4.29-15.69,6.6599-23.47c2.3801-7.69,2.6702-15.81,4.8101-23.55
		c1.0901-6.34,2.71-12.61,3.1899-19.04c-4.8799,3.06-9.4099,6.7-14.6499,9.13c-7.1199,3.28-13.5701,7.75-20.47,11.41
		c-5.29,2.74-10.22,6.35-16.0801,7.77c4.1301-5.09,10.8501-6.84,15.9399-10.8c10.5901-7.8,21.9001-14.58,32.1602-22.85
		c2.6899-2.29,6.52-3.93,7.3101-7.75c5.2998-19.45,10.6399-38.9,16.4399-58.21c1.6499-4.77-4.4001-7.05-5.78-11.09
		c-8-9.3-16.6699-18.02-24.5-27.48c-4.97-5.7-9.05-12.2-14.6399-17.33c-12.5901,15.99-28.4102,29.08-44.8401,40.95
		c-9.47,6.5-18.23,14.12-28.3601,19.6c-5.9099,2.67-11.3899,6.45-17.79,7.84c2.05-2.23,4.7402-3.69,7.28-5.31
		c11.0901-7.59,22.9402-14.23,32.8501-23.44c3.8301-3.77,8.53-6.61,11.79-10.96c5.8899-6.51,9.49-14.59,14.26-21.88
		c2.28-4.16,5.8499-7.37,8.3699-11.37c2.05-3.34,5.1001-6.58,4.4402-10.84c-4.6301,1.53-8.26,4.89-12.3,7.45
		c-6.51,4.63-13.47,8.63-19.79,13.49c-10.1401,13.06-20.28,26.43-33.23,36.9c-3.9399,3.75-8.8801,6.8-11.1702,11.93
		c-2.3899,5.27-5.8298,10.02-7.6499,15.54c-5.6599,7.05-7.3699,16.23-11.8899,23.93c-7.6702,12.19-15.0701,24.57-23.75,36.08
		c-5.1201,6.58-8.9602,14.18-15.2002,19.82c-7.6699,8.56-14.3298,18.1-19.73,28.24c-1.8398,3.05-2.5999,7.05-5.8198,9.02
		c0.6299-2.2,1.4199-4.36,2.3999-6.44c4.3801-9.07,7.8999-18.54,12.8601-27.32c7.0298-19.4,16.3699-37.9,23.0999-57.43
		c-10.55,3.26-18.8799,10.97-28.7,15.7c1.75-3.33,4.98-5.4,7.6699-7.91c5.03-4.6,9.8501-9.42,14.9102-14
		c4.28-3.83,7.1199-8.92,11.21-12.93c2.0999-1.86,2.26-4.79,2.8799-7.34c0.8801-4.82,2.7002-9.39,4.1802-14.05
		c-4.74,2.15-8.99,5.17-13.3601,7.95c-20.47,12.7-40.95,25.39-62.03,37.04c-3.55,1.55-4.6099,5.52-6.46,8.55
		c-3.8101,7.42-7.6399,14.83-11.9399,21.98c-1.6702,2.38-2.24,6.02-5.4001,6.87c1.8101-6.15,4.04-12.16,5.8101-18.32
		c1.3-4.72,4.5901-8.45,7.3701-12.36c-0.4202-0.42-1.27-1.25-1.7002-1.66c8.78-6.28,13.9202-16,19.0901-25.18
		c-5.6899,0.77-11.1299,2.65-16.75,3.73c-3.6599,0.74-7.6499,1.26-10.48,3.93c-12.1799,10.37-25.77,18.86-38.5901,28.37
		c-5.23,3.31-9.6799,7.78-15.24,10.54c2.76-4.38,6.1501-8.32,9.1001-12.58c4.05-5.49,7.1299-11.61,10.8501-17.33
		c4.0198-6.07,6.3298-13.13,10.7998-18.93c6-8.61,13.1101-16.38,18.9402-25.11c3.6199-5.5,8.5698-9.94,12.5498-15.16
		c20.28-21.79,40.1401-44.03,61.4001-64.88c4.3899-4.83,9.8198-8.66,13.6199-14.02c-2.96,1.48-5.49,3.53-7.98,5.64
		c-10.0898,8.37-20.4299,16.42-30.54,24.76c-11.27,10.31-23.5999,19.38-34.98,29.56c-4.5798,3.97-9.9399,6.84-14.78,10.42
		c-9.4099,7.86-18.0398,16.59-26.1699,25.74c-11.9399,13.68-24.53,26.76-37.45,39.5c-9.4199,9.21-18.2,19.42-29.4399,26.48
		c0.72-3.42,3.6499-5.49,6.0598-7.73c4.3-3.73,7.9001-8.19,12.1702-11.96c8.5598-7.79,16.3599-16.4,23.3098-25.65
		c4.02-7.43,9.3501-14.02,14.1501-20.95c4.1099-5.94,8.55-11.64,13.1899-17.18c6.51-7.67,12.3501-15.91,19.49-23.05
		c9.28-10.66,19.3901-20.55,29.5-30.42c13.3701-13.35,27.46-25.95,41.6899-38.37c4.1802-3.57,8.75-6.67,12.7102-10.5
		c-6.3,1.99-11.8601,5.68-17.8601,8.36c-13.6499,5.72-27.3701,11.27-40.9199,17.19c-11.8801,5.93-24.3101,10.64-36.03,16.87
		c-6.0801,3.69-12.8401,6.01-19.45,8.5c-4.9702,2.09-10.4602,0.93-15.5701,2.26c-6.3501,1.41-12.8201,2.31-19.02,4.26
		c-3.52,1.09-4.5601,5.59-8.28,6.32c2.6899-6.71,8.8601-10.97,13.6499-16.1c7.9502-6.7,15.02-14.49,23.8-20.18
		c18.05-10.54,36.6902-20.05,55.1501-29.85c9.25-3.92,17.8799-9.09,26.4299-14.34c4.3301-2.8,9.1199-4.84,13.3601-7.82
		c-3.3801,0.13-6.6802,0.78-9.9502,1.46c-13.0999,2.58-26.0598,5.81-39.1199,8.52c-18.29,4.07-36.53,8.72-55.1799,10.75
		c-4.8501,0.84-9.6201,2.22-14.5601,2.17c4.3198-2.58,9.49-2.75,14.1299-4.52c7.6899-2.94,15.5701-5.4,23.0601-8.85
		c8.3601-3.88,17.0801-7.2,24.6599-12.56c7.49-4.59,15.8501-7.52,23.9102-10.95c21.72-8.25,43.51-16.29,65.0999-24.87
		c-1.46-1.73-2.8098-3.61-4.7-4.88c-7.4399-5.07-15.3899-9.51-21.9199-15.77c-9.6602-7.61-19.78-15.07-26.8101-25.32
		c-3.48-4.77-8.6499-8.04-11.76-13.09c-1.8301-2.59-2.9199-6.3-6.5701-6.66c0.97-3.32-1.1499-5.69-3.8499-7.23
		c-0.2-1.01-0.3701-2.03-0.5-3.04c-3.6001-3.35-6.26-7.55-9.97-10.77c-3.3-2.94-6-6.48-8.3101-10.22
		c-2.3901-3.73-2.8801-8.52-6.0801-11.72C2262.4399,4.28,2260.1299,2.08,2257.73,0 M2372.01,20.2
		c-6.6899,1.78-13.6201,2.07-20.3999,3.22c3.7,6.32,9.96,10.61,14.4099,16.38c2.74,3.65,6.78,6.01,9.6001,9.59
		c1.2798,1.63,2.96,2.85,4.7,4c4.0798,2.41,6.6699,6.92,11.52,8.07c4.3999,3.17,9.0698,6.06,13.1899,9.62
		c0.95,0.64,1.98,1.25,2.9299,2c5.4001,4.98,11.97,8.37,17.76,12.87c0.04-1.94,0.03-3.93-0.8401-5.7
		c-4.46-10.71-8.8599-21.46-12.45-32.5c-1.3298-5.61-3.28-11.03-5.47-16.35c-3.55-6.02-4.77-13.18-4.9099-20.1
		C2391.8799,13.63,2382.3999,18.59,2372.01,20.2 M2544.51,19.4c-4.0801,2.56-7.26,6.4-10.3401,10.06
		c-3.78,4.3-5.6499,9.77-8.0498,14.87c-3.1702,8.05-8.4802,14.99-13.1001,22.2c1.6099-0.48,3.3301-0.95,5.02-1.37
		c7.1299-8.65,12.99-18.3,20.45-26.71c5.74-7.77,14.23-13.11,23.1001-16.69c2.53-1.7,5.7-2.03,8.25-3.75
		C2561.4099,18.28,2552.6599,16.72,2544.51,19.4 M2462.9299,198.34c-4.49,8.36-8.71,16.92-12.6099,25.57
		c5-3.08,9.71-6.62,14.4399-10.1c2.1299-1.44,2.02-4.49,1.3999-6.69C2465.1599,204.17,2464.5701,201.01,2462.9299,198.34
		 M2418.74,214.1c-15.97,16.7-27.53,36.89-41.0701,55.46c-4.9299,6.15-9.1299,12.86-14.1299,18.95
		c-1.77,1.87-3.3901,3.91-4.4299,6.27c10.1899-7.17,19.5-15.56,29.3298-23.24c2.3501-1.99,5.25-3.62,6.6201-6.53
		c2.23-4.4,5.01-8.51,6.97-13.05c5.8-11.96,12.1799-23.62,18.79-35.16c2.3999-4.25,5.4099-8.22,7.04-12.88
		C2424.05,206.57,2421.8999,210.82,2418.74,214.1 M2353.1899,283.16c-5.1599,6.13-9.77,12.81-15.8198,18.11
		c-5.55,4.47-8.6902,11.04-13.6802,16.04c1.77-0.21,3.6899-0.14,5.4102-0.89c3.5498-1.09,4.3899-5.65,8.26-6.21
		c7.4099-10.54,14.45-21.36,21.3999-32.21C2355.98,278.46,2354.8899,281.31,2353.1899,283.16 M2295.1499,322.28
		c-1.4299,1.36-3.8999,2.25-3.9099,4.54c6.8899-1.81,13.8801-3.34,20.6399-5.65c4.0701-5.13,8.02-10.75,10.2202-16.97
		C2312.6499,309.51,2303.97,316.03,2295.1499,322.28 M2320.4099,321.34c-2.76,5.03-6.6299,9.22-10.51,13.36
		c2.4502,0.45,4.02-1.6,5.74-2.95c5.3901-4.53,11.4802-8.21,16.5-13.18C2328.1001,318.91,2324.22,320.07,2320.4099,321.34
		 M2556.4199,328.23c-1.25,4.92-3.0598,9.81-3.0898,14.95c4.1599-3.96,3.8899-10.57,4.0598-15.93L2556.4199,328.23
		 M2548.8799,356.05c-1.8899,5.9-3.1299,11.97-4.5098,18c1.6899-0.75,2.7798-2.23,3.1099-4.03c1.3601-6.06,3.5601-11.94,4.4099-18.1
		C2550.6201,353.09,2549.1699,354.25,2548.8799,356.05z"/>
	<path fill="#0E0E0E" d="M2574.97,1643.4301c-1.75-1.0601-3.6799-2.7201-5.8401-1.8301c-2.1399,1.12-3.5598,3.4601-5.8999,4.1
		c-3.97-0.6-8-1.85-12.02-0.98c-6.71,2.62-14.1499,1.8301-21.1099,0.9c-5.8-1.67-11.6902,0.4401-17.5601-0.26
		c-0.1602,0.65-0.47,1.9501-0.6301,2.6c-4.97,0.7001-9.9399-0.85-14.8699,0.23c-2.6501-0.5599-5.3401-0.7599-8-0.62
		c-1.1799,0.38-2.3,1.2401-3.51,0.65c-3.4099-1.2999-7.02-0.47-10.51-0.34c-3.3901,0.13-6.8201,0.23-10.01,1.39
		c-2.9399-1.28-6.1399-0.8301-9.1101-0.0701c-7.5798-1.09-15.48-1.58-23-0.08c-1.6299-0.3-3.22-0.5699-4.7798-0.8099
		c-1.26,0.75-2.2202,2.48-3.8701,2.2c-1.6101-0.87-2.8799-2.21-4.3999-3.13c-3.0801-0.1801-6.2002,1.67-9.1401,0.09
		c-2.8101,0.47-5.22,1.92-7.25,3.85c-1.54,0.65-3.02,1.37-4.45,2.1901c-2.8601,0.11-5.71,0.09-8.54,0.0699
		c-0.3201-0.37-0.9399-1.1-1.26-1.46c-0.51,0.35-1.55,1.05-2.0701,1.4c-0.8999-0.51-1.7798-0.99-2.6299-1.4501
		c-0.3,0.4701-0.8899,1.4301-1.1899,1.9c-6.78,0.02-12.5701,4.5601-19.3701,4.15c-5.3298-0.13-10.6499-0.3199-15.96-0.13
		c-3.6101,0.3-6.4299-2.58-9.99-2.4299c-3.8101,0.1699-7.0901-2.27-10.8701-2.05c-0.71,1.09-1.3999,2.1899-2.0598,3.3099
		c-1.25-1.11-2.4402-2.21-3.6201-3.3099c-4.6099,0.3199-9.3799,0.34-13.7-1.48c-4.72-1.9-9.77-0.29-14.49,0.63
		c-2.1599-1.54-4.8401-1.88-7.3301-1.05c-5.1799,1.39-10.53,1.65-15.8098,2.28c-1.4001,2.54-3.3801,0.7-5.1001-0.24
		c-2.77,2.27-5.6201-0.8301-8.47,0.48c-0.3301-0.17-0.99-0.5-1.3301-0.66c-7.4099-0.01-14.95,0.42-22.0901-1.9099
		c-2.8599,1.84-6.0798,0.21-9.1299,0.7599c-4.53,0.78-9.0901,0-13.6299,0.25c-3.0901,0.2101-6.0801-1.73-9.0601-0.37
		c-4.5601,1.53-9.6301-1.23-13.96,1.2301c-4.5,2.2-10,2.75-14.6802,0.84c-2.71-1.3101-5.78-0.8201-8.6499-0.97
		c-7.6799-0.28-15.27,1.11-22.9299,0.97c-3.5801-0.23-6.76,1.47-10.0601,2.46c-4.3601,0.0601-8.6501-1.4-13.01-0.71
		c-5.3701,0.77-10.79,0.74-16.1101-0.24c-7.3198-0.51-14.7-0.0701-21.9399,1.03c-8.95,1.1599-17.99,0.83-26.98,0.45
		c-4.8101,0.37-9.1-3.26-13.87-1.1901c-3.45-0.63-6.89-1.2699-10.29-2.0299c-3.9399-0.98-7.9199,0.11-11.7999,0.75
		c-2.0601,0.87-4.14,1.6599-6.16,2.5599c-1.02,0.0601-2.02,0.14-2.97,0.25c-0.41,0.39-1.23,1.16-1.64,1.54
		c-3.99-1.99-8.38-0.91-12.58-0.6c-0.4-14.36,0.3899-28.75-0.2101-43.1001c-1.26-0.35-2.51-0.6899-3.72-1
		c-1.61-17.45,0.03-34.98-0.33-52.46c-0.41-8.02,0.63-16.03,0.01-24.03c-0.4-5.6499,0.8999-11.48-0.5701-16.99
		c0.28-0.5599,0.6-1.09,0.96-1.59c-0.5199-6.4399-0.35-12.92,0.54-19.3199c0.87-7.38-1.14-14.66-0.73-22.03
		c0.09-11.99-0.24-23.99,0.09-35.97c1-6.3201,0.66-12.7201,0.85-19.0801c0-15.01,0.0801-30,0.12-45
		c-0.3899-6.22,0.4-12.4,0.91-18.58c-0.48-0.01-1.45-0.02-1.9299-0.03c1.83-1.9,0.5199-4.67,0.76-6.97
		c0.36,1.27,0.6399,2.5699,0.98,3.9c0.0399-6.4301,0.09-12.86,0.89-19.24c0.6-12.0601,0.08-24.15,0.87-36.2101
		c0.2999-18.6,0.64-37.2,0.5699-55.8099c0.87-22.66,0.35-45.35,1.03-68.02c0.01-8.79-0.46-17.59-0.1901-26.37
		c3.24-2.3201,6.79-4.1801,10.3501-5.97c4.47-1.4701,7.2-5.7101,11.5099-7.55c0.01,0.91,0.03,2.73,0.04,3.64
		c5.16,0.49,10.29-0.15,14.86-2.73c-0.0299,2.28,0.01,4.59,0.0801,6.89c1.45-0.62,2.96-1.2301,4.45-1.86
		c0.37,0.48,1.11,1.4399,1.48,1.9299c1.12-0.11,2.27-0.1899,3.4501-0.27c0.8999-1.75,1.8099-3.51,2.72-5.27
		c1.65-0.36,3.29-0.72,5-1.0499c1.01,3.4399,1.8,6.9399,2.54,10.46c1.21-0.03,2.4399-0.0499,3.7-0.0599
		c2.3799-3.54,3.7-7.6101,4.79-11.6901c1.03,1.65,2.1899,3.27,3.72,4.55c0.0901-0.9,0.26-2.6801,0.3501-3.5701
		c1.48,2.0701,3.0198,4.1,4.49,6.2101c1.2798,0.1899,2.5498,0.36,3.8999,0.59c1.46-1.4501,2.8501-2.9501,4.27-4.4401
		c1.0701,1.3201,2.1899,2.67,3.3,4.02c1.6099-0.73,3.24-1.4199,4.9199-2.0699c0.8501-0.86,1.73-1.6901,2.6399-2.51
		c0.3701,0.77,1.0901,2.3099,1.4502,3.08c0.52-0.0599,1.5498-0.1899,2.0698-0.26c0.22-0.33,0.6702-1.01,0.8901-1.34
		c0,0.42-0.01,1.27-0.01,1.7c0.8101-0.12,2.4299-0.34,3.25-0.45c-0.29-1.3-0.5701-2.59-0.8101-3.86
		c2.0901-0.49,4.1799-0.95,6.3201-1.38c0.8398,1.02,1.7,2.0599,2.5898,3.11c1.3201,0.14,2.6602,0.28,4.04,0.45
		c0.75-0.6799,1.52-1.35,2.3101-2c2.23,2.3701,3.8201,5.29,6.0901,7.64c3.74,0.14,7.51,0.11,11.26-0.01
		c0.3699-0.6599,1.0898-1.98,1.45-2.6399c1.7,2.36,4.1399,4.1799,6.95,5.0599c3.23-1.33,6.1301-3.47,8.3801-6.16
		c3.1399-0.1799,6.4299-0.84,9.5498,0.0601c3.3901,1.41,6.6301,4.01,10.54,3.5c3.1101-1.09,5.3201-3.72,7.71-5.87
		c2.6301,1.0699,5.3901,2.4,5.9102,5.53c1.7998-0.63,3.6199-1.26,5.47-1.8601c0.78,1.8501,2.55,1.4501,4.1599,1.1801
		c3.3801,0.21,6.05,2.67,9.3,3.21c6.23-0.5399,12.25-2.5,18.22-4.2899c3.3501,0.3999,7.02,0.64,9.8501-1.5901
		c2.6499,0.16,5.6099-0.25,7.98,1.3c4.04,2.17,8.1799,5.24,13.03,4.6801c2.6199-0.2001,5.23-0.62,7.8198-1.2301
		c2.6602-0.6499,3.3901-4.8099,6.04-4.8199c2.0901,2,3.8901,4.66,7.1501,4.65c-0.4102-1.41-0.76-2.78-1.1401-4.16
		c2.3901-0.48,4.96-0.75,7.1401-1.98c1.0698-1.5601,1.8699-3.29,2.7798-4.9501c1.3501,0.26,2.7302,0.53,4.1401,0.8101
		c-0.1101-0.8101-0.3301-2.4301-0.4399-3.24c2.3198-0.1,4.6899-0.3201,6.98-0.89c1.03-1.2,2.1199-2.37,3.25-3.5
		c-0.29-0.84-0.54-1.67-0.77-2.49c1.49,0.02,3.02,0.05,4.5898,0.11c-0.1699-3.04,0.2402-6.0699,0.1301-9.09
		c-0.7-1.98-1.98-3.6801-3.01-5.4601c-6.5801-2.49-13.27-4.8899-18.9399-9.1499c-5.0601-2.1001-8.8801-6.13-13.71-8.6001
		c-6.27-4.1-13.3401-6.83-19.3101-11.3999c-3.53-2.8101-7.9399-3.98-11.9199-5.9301c-5.9702-2.88-12.25-5.0499-18.1401-8.0699
		c-6.5901-3.39-13.6499-5.8101-19.8501-9.92c-4.21-2.88-9.6499-2.95-13.8098-5.74c-7.47-2.01-14.3301-5.86-21.97-7.26
		c-6.02-1.0699-12.0901-2.5599-17.26-5.95c-5.8201-3.3401-10.9402-8.1901-17.6301-9.75c-4.8499-4.51-11.46-6.25-17.02-9.67
		c-4.49-2.8-9.4199-4.71-14.3699-6.46c-4.3401-1.47-7.9402-4.36-12.02-6.29c-4.4102-1.55-9.23-2.25-13.0601-5.09
		c-3.3601-2.59-7.5901-3.47-11.22-5.53c-3.35-1.82-7.17-2.64-10.35-4.77c-2.1901-1.46-4.3501-2.94-6.65-4.17
		c-5.5701-2.95-10.12-7.4-15.48-10.65c-2.9401-1.58-6.13-2.63-8.9601-4.38c-0.96-0.28-1.88-0.54-2.7699-0.78
		c-2.0901-2.44-3.9-5.07-5.77-7.65c-2.23-2.33-4.78-4.34-6.91-6.75c-3.34-0.56-6.5699-1.67-9.27-3.72c-2.11,2.37-3.08,5.37-4.35,8.2
		c-1.72,1.27-3.63,2.25-5.25,3.63c-3.9,3.93-10.55,2.83-13.96,7.49c-9.1801,1.23-16.76,6.84-24.7301,11.07
		c-8.2999,5.34-17.46,9.13-25.8999,14.24c-4.89,3.17-10.3201,5.38-15.0801,8.74c-4.0599,2.75-8.64,4.59-12.73,7.27
		c-4.5,2.89-9.01,5.8-13.75,8.3c-3.73,1.9-6.91,4.79-10.9,6.18c-9.61,3.36-18.95,7.53-28.7799,10.25
		c-5.5901,1.9399-11.3601,3.4-16.75,5.86c-3.0801,1.24-4.6001,4.79-7.9901,5.42c-4.72,1.2999-8.85,3.97-13.2999,5.89
		c-6.65,2.95-11.91,8.36-18.8101,10.8199c-5.37,1.95-8.76,7.22-14.37,8.66c-5.87,1.58-10.5,5.83-16.27,7.65
		c-4.95,1.1799-7.0299,6.6399-11.7599,8.21c-4.02,1.24-6.8101,4.5-10.25,6.71c-3.29,2.16-6.78,4-9.9801,6.29
		c-4.0499,3-8.86,4.62-13.35,6.79c0.03,1.4099,0.03,2.85,0.26,4.2799c2.26,2.11,5.34,3.14,7.46,5.4601
		c2.8201,2.83,5.78,6.3099,10.05,6.6799c5.13,0.36,9.1-3.6799,13.99-4.49c2.05-0.27,4.16-0.03,6.25,0.16
		c2.8101,4.13,7.6801-0.25,11.28,2.0699c2.62,1.2101,4.91,3.2101,7.79,3.85c2.23,0.51,4.1899-0.97,6.1399-1.8199
		c0.7301,0.71,1.4901,1.4401,2.26,2.1901c1.2301-0.15,2.4801-0.28,3.76-0.4c0.02,0.6,0.0801,1.8199,0.1,2.4199
		c3.9-0.95,7.91-0.87,11.8601-0.23c1.3199,1.49,2.6799,2.9601,4.0499,4.4401c1.4301-0.16,2.91-0.2101,4.37-0.53
		c1.89-1.66,3.49-3.64,5.3101-5.4c3.6899,0.75,7.4199,1.3,11.1699,1.8c0.12,1.22,0.26,2.46,0.42,3.72c2.05,0.12,4.12,0.46,6.2,0.17
		c1.9601-1.15,3.4901-2.88,5.1901-4.37c0.63,1.49,1.28,3.0099,1.9399,4.5299c2.6901-0.98,4.49-3.24,6.24-5.39
		c3.55,3.7401,8.9501,3.2101,13.5601,4.55c2.76-1.01,5.1-3.16,8.0601-3.65c0.21,0.67,0.6399,1.99,0.86,2.66
		c4.46,0.1899,9.2799-3.4401,13.3199-0.35c3.38,2.52,7.85,2.01,11.79,1.58c8.08-2.52,16.7899-1.66,24.99-0.1899
		c1.9,1.47,2.4399,4.33,3.75,6.39c2.0599,0.6699,4.15,1.95,6.4199,1.35c1.54-1.11,2.7201-2.63,4.0601-3.9701
		c0.71-1.22,1.39-2.47,2.3-3.5599c4.7699-1.12,9.72-0.2,14.5699-0.25c3.9401-0.0699,7.92,0.05,11.76,1.08
		c2.49,0.92,4.91-0.5299,7.33-1.0599c0.8,0.75,1.63,1.51,2.48,2.2899c0.64,0.03,1.92,0.0901,2.5701,0.1201
		c7.6,2.85,14.03,7.8099,20.71,12.2899c-0.62,10.72-0.46,21.4601-0.62,32.1901c-1.15,13.95-0.39,27.98-1.21,41.95
		c-1.1901,19.3-0.1901,38.6801-1.33,57.97c0.49,5.01-0.39,10.01-0.2101,15.04c0.26,11.3199-0.13,22.64-0.23,33.97
		c0.23,20.01-0.6,39.99-0.83,60c-0.0601,9.3201-0.0601,18.67-0.86,27.97c-0.1801,12.9901-0.29,25.9901-0.4,38.9901
		c-0.04,21.6899-1.0601,43.37-0.74,65.0599c-1.8101,23.9401,0.0599,48.02-1.91,71.96c-0.3,5,0.33,10.03-0.27,15.03
		c-1.88,8.88-0.35,17.99-1.23,26.97c-0.67,5.9-0.27,11.8501-0.77,17.78c-2.35,1.15-4.5699,2.67-7.13,3.3
		c-8.4,1-16.95-0.87-25.29,0.72c-4.3999,1.3101-8.3899-2.35-12.8199-1.4301c-6.3199,0.8301-12.87,0.3-18.9301,2.52
		c-5.08,1.0701-9.84,3.4501-15.0299,4c-4.48-0.14-8.9-1.0599-13.3401-1.4399c-0.3199-0.51-0.95-1.52-1.2699-2.03
		c-6.49,0.87-13.25-0.36-19.38,2.5699c-1.64,1-3.1901,2.15-4.9501,2.9301c-4.6899,1.15-9.48-1.23-14.1599,0.12
		c-1.7001-0.97-3.54-2.24-5.54-1.33c-3.42,1.35-6.9401,0.21-10.37-0.3201c-3.74,3.29-8.99,1.6-13.4401,1.37
		c-5.7-1.02-10.7999,3.0901-16.49,2.16c-6.96-0.74-13.96-0.59-20.9399-0.6c-0.91-0.42-1.8-0.8201-2.67-1.2001
		c-3.78,1.04-7.4299,2.54-10.59,4.89c-5.28-0.1499-9.89-5.6599-15.12-2.73c-2.09-1.47-3.89-3.9299-6.65-3.9299
		c-1.96,0.87-3.52,2.37-5.25,3.59c-2.8-1.54-6-1.87-8.72-0.02c-1.3101-0.16-2.5901-0.33-3.86-0.3c-2.53,1.3401-4.28,4.04-7.24,4.53
		c-6.4901,0.3101-11.51-5.12-17.9601-4.9199c-4.03-0.4901-7.86,1.21-11.85,1.1399c-2.25-0.1799-4.28,0.75-6.35,1.41
		c-2.6901,0.15-5.39-0.24-8.05,0.15c-1.63-0.8-3.12-2.0699-4.9099-2.33c-7.2301,0.5699-14.6101,2.22-21.8101,0.6499
		c-5.12-0.7699-9.87,2.0701-14.96,2.03c-4.3501,0.03-8.6901,0.3301-12.98,0.96c-4.2301-3.0699-9.6201-3.2699-14.5901-4.0199
		c-0.11,0.7899-0.3099,2.37-0.4099,3.1599c-8.02-1.7699-16.0901,0.1001-24.16,0.12c-5.5,1.3401-10.9401-2.12-16.3101,0.14
		c-1.4099-0.09-2.8099-0.1799-4.1699-0.23c-0.38,0.36-1.15,1.09-1.53,1.4501c-3.5701-1.0701-7.17-2.0901-10.85-2.53
		c-5.2201,0.9099-10.8301,4.26-15.92,1.2899c-5.95,0.3-13.0699-1.47-17.33,3.87c-0.3301-0.4299-0.99-1.2999-1.3201-1.73
		c-6.4299-1.37-12.88-2.6499-19.4-3.4099c-0.5099,0.49-1.5299,1.49-2.0299,1.98c-6.73-1.74-13.7201-1.8201-20.3401-4.03
		c-1.2999,1.04-2.2999,3.37-4.2999,2.47c-4.1801-1.08-8.37,0.15-12.49,0.8201c-3.9,0.7-7.5901-1.8501-11.4601-0.98
		c-3.96,0.6599-8.0399,1.9399-12.0499,1.0099c-4.39-1.46-9.09-0.73-13.52-2.0399c-5.0699,0.49-10.16,2.9099-15.25,0.96
		c-3.8101,0.88-7.52,2.1-11.21,3.3201c-0.7101,1.1399-1.39,2.3099-2.04,3.49c-0.51-1.0601-1-2.1001-1.48-3.12
		c-1.26-0.0801-2.51-0.15-3.73-0.1901c-0.8501-0.91-1.6801-1.79-2.5-2.65c-0.52-0.0699-1.5701-0.21-2.1001-0.2899
		c-0.36,0.63-1.09,1.87-1.45,2.49c-0.1-1.01-0.29-3.01-0.39-4.01c-4.22,0.36-8.34,1.36-12.2999,2.8099
		c-4.88,2.02-10.2401,0.89-15.3301,0.8c-0.08-0.78-0.24-2.34-0.3199-3.12c-1.65-0.3201-3.3101-0.64-4.9401-0.89
		c-2.46,4.42-7.99,0.96-11.8199,0.92c-6.04,0.01-12.04-0.4-18.05-0.88c-2.89-0.4301-5.22,1.6499-7.9199,2.1799
		c-5.37,0.39-10.7201-0.2899-16.04-0.83c-1.88-0.4501-3.4,0.8199-4.92,1.63c-2.33-0.52-4.7-0.85-7.0499-1.0801
		c-2.1001-0.72-4.3301-0.9399-6.4601-0.33c-4.7799,1.16-9.7,0.6801-14.5499,0.95c-3.0601,2.6101-7.36,1.3701-10.55-0.2899
		c0.79-8.3,2.0801-16.73,1.01-25.04c-3.15-3.0499-7.95-3.27-11.97-4.45c0.0699-7.3,0.01-14.62,0.47-21.91
		c1.0601-7.62,0.5601-15.3101,0.41-22.96c-0.16-3.4301,0.66-6.76,1.8099-9.9501c-1.14-6.9399-1.1499-14.02-0.72-21.02
		c0.26-13.36,0.6801-26.71,1.1901-40.0599c0.85-10,0.2599-20.04,0.7999-30.05c-0.27-14.6899,1.3201-29.3099,1.28-43.99
		c0.0699-11.34,0.96-22.64,1.04-33.96c0.23-15,1.21-29.99,1.11-44.98c1.27-24.3201,1.4299-48.6801,2.74-72.99
		c0.08-14.99,0.5599-29.98,0.36-44.9601c0.63-8.35-0.8-16.74,0.65-25.0499c0.1599-14.3401,0.2999-28.7001,0.26-43.05
		c-0.03-4.34,1.2899-8.65,0.4299-12.97c1.09-13.97,0.1901-28.03,0.7001-42.02c0.46-3.97,0.97-7.95,0.85-11.9399
		c-0.28-7.7201,1.1699-15.3601,0.95-23.0701c-0.24-7.35,0.9301-14.63,0.77-21.97c-0.03-5.67,0.1801-11.3201,0.21-16.98
		c0.0801-7.02-0.37-14.11,1.2001-21c0.9299-4.02-0.86-8.0601-0.05-12.0801c0.72-1.6199,1.87-2.9999,2.89-4.4299
		c0.67,0,2.02,0.01,2.6901,0.02c0.83-0.69,1.6699-1.36,2.5299-2.02c0,1.34,0,2.69,0.02,4.05c0.42,0.42,1.26,1.25,1.6801,1.67
		c0.48,1.52,0.99,3.0601,1.5299,4.6c0.51-0.01,1.55-0.0299,2.0601-0.0399c1.2-1.49,3.42-2.89,1.67-4.8701
		c0.1799-1.25,0.38-2.48,0.59-3.71c0.51,2.32,1.13,4.61,1.6899,6.9401c1.74-1.66,4.2301-2.13,6.1001-3.51
		c1.61-3.79,1.4099-8.02,2.1499-12.01c0.8201,0.11,2.4601,0.32,3.28,0.42c0.03-0.82,0.09-2.48,0.12-3.31
		c3.29-0.86,5.39,2.01,7.5601,3.93c1.09,0.05,2.1899,0.11,3.3099,0.18c0.88,2.27,1.8,4.54,2.9301,6.71
		c0.13,1.02,0.2899,2.05,0.46,3.09c1.73,1.15,3.36,2.48,4.52,4.2501c0.53-0.01,1.5699-0.04,2.1-0.05c0.41-1.01,0.9-1.9399,1.36-2.91
		c0.0901,0.64,0.29,1.94,0.38,2.58c2.4501,2,5.0701,3.85,8.11,4.87c0.92-2.52,1.3201-5.1901,0.8201-7.84
		c0.0599-1.75,0.1-3.5,0.1899-5.22c1.5801,0.17,3.1801,0.37,4.8,0.58c2.37,3.15,4.51,6.47,6.02,10.1401
		c1.6599-0.16,3.35-0.3401,5.0399-0.52c2.6001,0.48,5.2301,0.2799,7.25-1.63c-0.09-1.7201-0.1699-3.45-0.22-5.15
		c1.29-0.4,2.59-0.79,3.91-1.16c-0.26-2.2-0.53-4.41-0.6901-6.6c4.03,5.34,4.8301,12.05,6.27,18.36c3.64,0.53,5.6801,3.59,7.47,6.48
		c1.42,0.01,2.8501,0.04,4.3101,0.0801c2-5.02-0.11-10.26-0.4401-15.36c0.4401,0.02,1.3201,0.06,1.75,0.08
		c2.04,2.53,4.38,4.78,6.5901,7.17c2.4,0.0299,4.8199,0.0299,7.25,0.0199c-0.24-2.6499-0.55-5.2699-0.79-7.9
		c2.76,0.9,4.54,3.2501,6.48,5.28c1.0901,0.87,2.16,1.77,3.26,2.7101c2.65-0.4401,5.23-1.36,7.9301-1.54
		c4.84,2.12,10.36,1.05,15.51,1.5c0.96-2.09,2.01-4.13,3.21-6.08c0.67,0.5,2.01,1.5,2.6899,2c3.52,0.2699,8.01-1.3201,10.6901,1.73
		c1.2,0.0699,2.42,0.15,3.67,0.24c0.3199-0.5701,0.9399-1.72,1.25-2.29c1.4399,0.73,2.74,2.76,4.5699,1.9501
		c2.29-0.7201,4.46-1.79,6.67-2.75c2.34,2.86,5.9299,3.1399,9.37,3.38c3.4099,3.46,8.89,1.21,13.2,1.71
		c0.02-0.64,0.0601-1.9301,0.08-2.5701c1.8601,0.14,3.75,0.26,5.64,0.37c0.28,1.4701,0.5701,2.9501,0.89,4.4501
		c3.37-0.1801,6.73-0.8301,9.85-2.2001c1.1101-1.6899,2.77-2.86,4.2301-4.23c0.2899-1.47,0.5399-2.93,0.75-4.4
		c1.6499,1.45,3.12,3.1299,4.7899,4.6c1.8401,0.14,3.72-0.03,5.6-0.11c0.65-0.6901,1.3301-1.38,2.03-2.05
		c1.2101,0.12,2.4401,0.25,3.7001,0.38c0.37-0.67,1.11-2,1.48-2.67c0.6799,0.41,2.0499,1.24,2.74,1.65c-0.01,0.7-0.03,2.1-0.04,2.8
		c1.51,0,3.03,0,4.5801,0.0299c1.1399-1.0699,2.3099-2.09,3.5099-3.09c1.17,1,2.3201,2.09,3.63,2.97
		c2.7301-1.0399,5.4401-2.21,8.4-2.46c0.73-0.61,1.49-1.21,2.26-1.79c1.1,0.13,2.22,0.28,3.37,0.43c1.09-2.25,3.6-2.71,5.76-3.4
		c-0.16-1.48-0.3099-2.94-0.4399-4.38c2.5399,1.12,5.25,1.69,8.0199,1.98c0.42-0.57,1.28-1.7,1.7001-2.27
		c0.54-0.1,1.61-0.29,2.14-0.39c2.33-2.29,5.09-1.44,7.61,0.04c2.3099-0.65,4.58-1.47,6.9299-2.06c2.65,2.05,5.5701,3.83,8.78,4.91
		c0.51-2.11,0.98-4.21,1.41-6.32c1.0599-0.57,2.15-1.12,3.26-1.67c1.5399,0.1,3.08,0.16,4.66,0.23
		c1.8999,1.63,3.8199,3.27,5.6799,4.98c1.03,0.02,2.0701,0.06,3.16,0.12c1.28-0.92,2.59-1.8,3.95-2.64
		c1.7001,2.32,4.28,3.13,7.0801,2.94c5.3199,2.9,11.85,2.35,16.5399-1.51c0.5901-1.59,1.22-3.15,1.88-4.71
		c1.61-0.75,3.22-1.51,4.84-2.29c3.1201,1.71,5.9801,4.65,9.8101,4.46c3.55-0.01,6.9399-1.2401,10.27-2.35
		c0.62-2.28,2.28-3.78,4.45-4.6c2.1-0.01,3.91-1.04,5.65-2.11c0.29-2.17,0.65-4.32,1.05-6.45c0.64-0.16,1.9199-0.49,2.5599-0.66
		c0.61-2.92,0.86-5.9,0.92-8.87c0.5-0.31,1.51-0.93,2.01-1.24c-0.5-2.22-0.9501-4.44-1.3201-6.67c-1.64-1.03-3.3099-1.99-4.98-2.91
		c-0.4-1.12-0.77-2.22-1.12-3.3c-3.98-3.53-6.39-8.51-10.96-11.4c-1.5-0.35-2.99-0.61-4.38-1.15c-0.8301-1.22-1.36-2.6-1.9301-3.91
		c-2.8099-0.21-5.9399,0.34-8.24-1.61c-3.3199-0.26-6.65-0.01-9.9299-0.47c-5-1.22-9.41-3.96-13.9701-6.23
		c-4.1-2.04-7.3199-5.41-11.3199-7.62c-5.58-3.4-11.98-5.56-16.6801-10.2599c-8.6899-5.84-18.5199-9.64-27.8999-14.17
		c-2.41-1.27-4.52-3-6.62-4.69c-0.55-0.08-1.64-0.25-2.1901-0.34c-4.39-3.46-8.45-7.64-13.85-9.5c-3.86-1.26-7.04-3.93-10.9401-5.04
		c-3.33-0.95-6.0199-3.18-8.38-5.61c-3.3899-0.27-6.3199-1.89-9.35-3.2c-10.39-2.19-19.63-7.64-29.08-12.2
		c-5-1.58-9.4-4.91-14.73-5.33c-2.5-0.34-4.89-1.1-7.28-1.78c-3.87-2.82-7.47-6.06-11.79-8.2c-4.75-2.42-9-5.84-14.09-7.53
		c-4.5601-1.51-8.52-4.27-12.77-6.42c-5.03-2.54-8.9-7.02-14.33-8.79c-7.49-2.59-12.99-8.9-20.48-11.5
		c-3.8501-1.39-7.17-3.91-11.1001-5.09c-3.1799-2.78-6.1399-5.82-9.72-8.08c-3.14-1.82-4.51-5.38-7.23-7.62
		c-3.75-2.99-6.86-6.75-11.03-9.19c-2.1-1.17-3.5699-3.07-4.87-5.02c-2.2899-1.88-4.49-3.86-6.48-6.04
		c-0.5-0.13-1.49-0.38-1.99-0.51c-0.35-0.57-1.04-1.72-1.38-2.29c0.36-0.49,1.09-1.46,1.46-1.95c-0.22-1.9-0.4299-3.81-0.6-5.7
		c1.84,0.6,3.72,1.24,5.59,1.85c-0.21-1.23-0.36-2.4301-0.5199-3.64c0.34-2.28,0.4399-4.6,0.47-6.89c2.21-1,4.53-0.25,6.72,0.43
		c-0.13-0.92-0.39-2.77-0.52-3.69c-0.72-0.01-2.16-0.04-2.89-0.05c-0.73-0.78-1.39-1.5-2.0399-2.3
		c1.0199,0.33,3.0499,0.98,4.0699,1.3c-0.6899-3.56-1.41-7.35-4.05-10.03c0.0901-1.39,0.2001-2.77,0.3301-4.13
		c0.73,0.25,1.48,0.5199,2.25,0.7899c0.12-0.8499,0.37-2.5399,0.49-3.3799c1.55,0.34,3.08,0.84,4.67,1.1299
		c2.0499-0.6199,3.38-2.5,4.5499-4.1799c0.61,0.04,1.84,0.11,2.4501,0.14c-0.0601-1.88-0.13-3.78-0.13-5.65
		c-1.6101,0.0701-3.15,0.1699-4.7201,0.27c-0.72-1.5601-1.45-3.0901-2.1499-4.62c1.95,1.39,3.9399,2.7599,6.08,3.89
		c0.61-4.29-2.38-7.53-3.58-11.3701c-2.67-1.8599-5.6101-3.25-8.5701-4.5199c-0.62-1.34-1.53-2.4701-2.85-3.11
		c0.38-0.8,0.77-1.5901,1.1799-2.3701c-0.6299-1.0299-1.25-2.0499-1.84-3.0599c-5.71,1.25-11.58,1.37-17.28,2.62
		c-1.96-0.4199-3.9099-0.1899-5.71,0.62c-2.59,1.2201-5.4,0.25-8.1,0.34c-3.48,0.3201-6.95,1.7101-10.45,0.7001
		c-5.5801,2.13-10.9801,5.39-17.16,5.16c-5.85,0.26-10.8101-3.66-16.6-3.5901c-3.9501-0.52-8.4801,0.29-11.7201-2.5
		c-0.88-0.1599-1.74-0.3-2.5699-0.4299c-0.88,1.24-1.75,2.49-2.64,3.72c-0.27-1.52-0.51-3.03-0.73-4.53
		c-0.54-0.0699-1.62-0.21-2.16-0.28c-0.11,1.9001-0.22,3.79-0.29,5.7101c-0.7999-0.85-1.58-1.6901-2.35-2.53
		c-2.14-0.01-4.27-0.0399-6.39-0.08c-0.0599,0.6699-0.1699,2-0.23,2.6699c-0.7999,0.76-1.5699,1.52-2.34,2.3
		c-0.67,0.03-2.01,0.09-2.6801,0.12c0.14,1.38,0.3,2.76,0.4701,4.15c-1.3101,0.3199-2.5901,0.6499-3.87,0.98
		c-1.38,2.04-2.9301,3.96-4.5,5.85c-1.37-0.01-2.7101-0.0199-4.05-0.01c0.04,3.28,0.13,6.58,0.85,9.8
		c-0.9299,1.38-1.63,3.0299-3.11,3.91c-3.2,0.49-6.4299,0.6199-9.59,1.34c-1.25,1.6901-2.4501,3.43-3.5601,5.22
		c2.4601-0.16,5.26-0.83,7.2201,1.18c-1.77,1.9-3.4301,3.95-4.16,6.49c1.64-0.35,3.3099-0.72,4.96-1.11
		c0.55,1.49,1.13,2.99,1.76,4.47c-1.29,4.5699-3.52,8.8199-6.04,12.8199c-2.95,2.86-7.0199,4.32-9.85,7.3701
		c-2.95,1.68-5.89,3.35-8.8199,5.05c-1.1,0.63-2.17,1.29-3.2201,1.97c-3.37,1.58-6.7599,3.24-10.48,3.75
		c-3.5,0.37-5.76,3.31-8.72,4.83c-4.65,2.23-9.21,4.75-14.2,6.16c-3.9401,1.5-8.2201,2.48-11.5601,5.1801
		c-11.03,5.95-20.9399,14.16-32.95,18.14c-9.16,5.57-18.75,10.41-28.73,14.3c-7.4,4.1801-13.3501,10.82-21.6801,13.34
		c-9.01,2.67-17.6,6.56-25.7,11.32c-9.27,5.57-19.89,8.25-29.36,13.44c-7.55,3-14.17,8.59-22.43,9.53
		c-3.2,1.78-6.63,3.09-10.15,4.07c-2.42,1.66-4.86,3.29-7.13,5.14c-0.95,0.19-1.88,0.4-2.8,0.61c-6.82,4.69-13.62,9.48-20.92,13.4
		c-3.88,2.28-9.43,1.66-12.1,5.75c-0.63,0.75-1.26,1.51-1.86,2.28c-6.43-0.21-10.28,5.46-15.19,8.62
		c-4.67,3.04-8.83,6.85-13.78,9.45c-6.19,3.14-12.17,6.87-18.93,8.71c-1.02,0.67-2.04,1.35-3.06,2.02
		c-2.32,1.38-4.55,2.95-6.27,5.08c-0.38,0.24-1.16,0.73-1.54,0.97c-3.21,3.51-7.51,5.89-10.33,9.76c-1.28,1.77,0.28,3.81,0.75,5.6
		c-2.69,3.04-5.24,6.71-5.28,10.92c0.83,2.27,2.3,4.22,3.54,6.28c2.02,2.66,3.72,5.59,6.09,7.99c2.98,3.22,6.81,5.46,10.01,8.44
		c1.97-0.18,4.16-0.03,5.87-1.22c1.13-1.28,1.96-2.78,2.93-4.17c3.44,1.29,5.39-2.5,7.9-4.09c0.34-0.43,1.01-1.28,1.34-1.71
		c4.52-1.04,9.19-0.31,13.7401-0.96c4.02-1.62,7.62-4.62,12.2599-4.05c1.9-1.82,3.7-3.82,4.64-6.32c2.2-0.62,4.4-1.44,6.72-1.51
		c2.35,0.55,4.57,1.54,6.84,2.41c0.41,2.03,0.87,4.08,1.35,6.12c1.31-0.52,2.62-1.03,3.95-1.54c0.7,0.61,1.41,1.23,2.13,1.86
		c1.19,0.49,2.39,1.01,3.61,1.53c0.84,2.3,0.88,5.23,3.1,6.75c1.61,1.03,2.22,2.78,2.69,4.56c1.62,0.37,3.23,0.9,4.3,2.3
		c2.78-0.1,6.59,1.31,8.37-1.63c5.77-0.65,10.52-4.36,15.63-6.83c0.52-0.89,1.05-1.77,1.59-2.63c0.94,0.07,2.82,0.22,3.76,0.3
		c-0.5,2.06-1,4.13-1.42,6.22c1.55,1.47,2.99,3.06,4.39,4.69c2.92-0.1,5.85-0.13,8.79-0.07c0.13-0.63,0.39-1.9,0.51-2.53
		c1.2-0.65,2.4-1.29,3.61-1.92c0.4399,2.31,0.8,4.63,1.14,6.97c1.06,1.21,2.1,2.45,3.14,3.72c1.6-0.17,3.27-0.14,4.83-0.64
		c1.33-1.08,2.31-2.51,3.54-3.68c2.65,0.87,5.22,2.24,8.12,2.04c4.62-0.19,8.83,2.52,13.51,1.7c0.24,0.62,0.72,1.86,0.96,2.48
		c5.58,1.16,8.66-4.29,13.2-6.35c1.97,1.31,4.2,1.64,6.41,0.67c-0.04,1.16-0.06,2.34-0.07,3.53c3.14,0.22,6.55,0.56,8.92-1.97
		c0.7001,0.07,2.09,0.19,2.79,0.25l0.0699-1.6c0.12,0.39,0.36,1.16,0.49,1.55c3.66-0.63,7.51-0.98,11.11,0.21
		c0.3601,0.55,1.0701,1.67,1.42,2.23c0.73-0.85,1.5-1.66,2.33-2.42c2.92-0.35,4.05-3.22,5.8601-5.12
		c1.2699,0,2.4299,0.67,3.6399,1.09c1.39,3.54,5.41,4.3701,7.9401,6.8701c1.05,0.08,2.11,0.18,3.1801,0.29
		c0.0745-0.6297,0.2034-1.7689,0.2969-2.5694c0.082,0.0767,0.166,0.1514,0.2531,0.2233c0.4335,1.4704,0.7665,2.9794,1.0701,4.506
		c2.6799,0.67,5.46,0.68,8.21,0.42c0.36-0.34,1.09-1.03,1.46-1.38c3.41,1.7,5.7001-2.14,8.9401-2.42
		c1.6899-0.3199,3.4199-0.47,5.1499-0.65c2.4501,0.45,4.9401,0.67,7.4501,0.81c1.33,1.83,2.6899,3.63,4.01,5.49
		c0.46,0.16,1.36,0.49,1.8199,0.65c1.47,1.15,2.97,2.27,4.4601,3.44c4-0.2401,8.0699-1.06,12.0499-0.05
		c3.5601,0.2,5.22,4.68,8.9401,4.33c4.01,0.58,9.2899-2.5,12.0299,1.74c2.4801,0.21,4.9801,0.35,7.49,0.4501
		c0.1801-0.5901,0.54-1.76,0.7201-2.3501c2.11,0.3,4.24,1.3101,6.4199,0.6801c5.9301-1.68,11.9701,0.9,17.14,3.6799
		c1.9301-2.95,3.64-6.02,5.54-8.9899c3.08,0.52,6.14,1.61,9.3,1.65c1.2-1.08,2.21-2.34,3.2899-3.53c0.66,0.17,1.97,0.51,2.63,0.68
		c0.54-1.89,1.14-3.75,1.84-5.58c2.63,4.04,8.2201,3.54,11.15,7.2c1.9501,1.6,1.5701,4.23,1.6801,6.49
		c0.01,8.03,0.09,16.0601-0.0801,24.09c-1.2899,9.6001-0.5599,19.3-0.9299,28.9601c0.0499,10.3099-0.05,20.62,0.02,30.9399
		c0.14,5.7001-1.35,11.3-1,17.01c0.2999,5.6801-0.36,11.34-0.8301,17c-0.1599,12.66-0.09,25.34-0.3099,38
		c-0.66,5.65-1.09,11.33-0.88,17.03c0.24,5.35-1.03,10.61-0.99,15.95c-0.04,4.9,0.22,9.8301-0.5,14.7001
		c-1.12,6.97,0.0399,14.0699-0.98,21.0499c-0.5701,3.9301-0.5901,7.91-1.0801,11.86c-0.88,7.03,0.02,14.15-0.9099,21.1901
		c-0.9,7.03-0.8201,14.1699,0.23,21.1799c-0.6801,6.78-1.9501,13.89,0.1899,20.55c-0.49,0.28-1.48,0.84-1.98,1.13
		c1.67,7.01,0.78,14.22,0.97,21.35c0.2201,5.71-1.2999,11.3201-0.9,17.04c0.25,4-0.4399,7.96-0.9199,11.9199
		c-0.51,11.01,0.29,22.0701-0.42,33.0701c-1.11,5.66-0.47,11.47-1.4,17.15c-0.72,3.7899,0.7301,7.58,0.1101,11.38
		c-0.6801,5.13-0.3,10.3099-0.3401,15.48c0.01,3.7-1.0499,7.3099-1.0499,11.03c-0.0901,6.49,0.3999,13.0299-0.55,19.5
		c-1.25,8.8099,0.29,17.7799-1.14,26.58c-1.26,9.27,0.46,18.66-0.66,27.9301c-2.8899,12.3099,1.1101,25.0399-1.2799,37.4099
		c-1.7001,5.4-0.7201,11.11-1.42,16.66c-0.89,6.0599,0.12,12.27-1.39,18.28c1.16,3.4199,0.61,7.0699,0.5801,10.62
		c-0.1801,5,0.11,10.02-0.1001,15.03c-0.02,3.9099-3.22,6.9299-3.22,10.8899c-0.61,8.17-1.55,16.3301-1.79,24.54
		c-4.7799,0.34-9.6,0.3-14.26,1.54c-1.62,0.65-2.8199-0.66-3.8999-1.5601c-4.04-0.53-8.23-2.1-12.2101-0.47
		c-3.89-1.36-7.7899,0.6-11.6899-0.11c-4.42-0.83-8.78,0.7-13.16,1.04c-4.0599-0.2101-8.26-0.91-12.1,0.7999
		c-3.67,1.87-6.25-2.37-9.8101-2.4c-3.88-0.46-7.45-2-11.12-3.1699c-1.49-0.52-2.4099,0.86-3.2899,1.74
		c-4.4301-0.14-8.85,0.24-13.27,0.25c-0.2001,0.53-0.59,1.5699-0.79,2.09c-3.52,0.8101-7.09,1.22-10.66,0.54
		c-6.24,1.47-12.6299,0.2999-18.8999-0.23c-10.15,0.5599-19.9-3.91-30.09-2.9701c-3.16,0.63-5.65-1.49-8.27-2.7999
		c-2.3,0.22-4.22,2.09-6.6,1.9099c-3.41-0.23-6.82-0.0399-10.14,0.76c-6.24,1.3501-12.65,1.4701-18.96,2.26
		c-2.36-0.34-4.74-0.34-7.06,0.15c-3.05-0.63-6.08-1.33-9.01-2.34c-2.8199-0.03-5.62,0.15-8.43,0.1799
		c-3.11-0.0499-6.12-1.3899-9.24-0.85c-7.47,1.27-15.15-1.75-22.51,0.79c-5.96-1.37-12.52,1.4299-17.95-2.1
		c-0.96,0.61-1.89,1.2799-2.82,1.9399c-6.91-0.22-14.18,4.03-20.7401,0.4301c-4.3799-2.51-9.5-0.9501-14.24-1.35
		c-3.89-0.3601-7.64,0.83-11.47,1.1c-5.25-0.62-10.59-2.17-15.86-0.77c-2.4,0.9299-4.6-0.4401-6.77-1.27
		c-3.06,2.53-6.6,0.6801-9.87-0.1899c-3.05-0.16-5.96,1.22-8.93,1.72c-0.84-1-1.67-1.98-2.49-2.9401
		c-2.7-0.0699-5.19,0.91-6.77,3.16c-6.53,2.12-13.31,0.55-19.9-0.26c-0.61-0.89-1.21-1.75-1.8-2.6c-5.4,0.22-10.8-0.3101-16.19-0.04
		c-4.65,0.1901-9.17-1.12-13.77-1.51c-5.11-0.63-10.11,1.0601-15.21,0.88c-2.69,0.13-5.16-1.1699-7.8-1.33
		c-1.65,0.8199-2.87,2.25-4.23,3.48c-2.56-0.4-5.15-0.6799-7.73-0.87c-1,0.5699-2,1.16-3,1.77c-1.28-0.72-2.29-2.49-3.94-2.14
		c-2.06,0.86-3.2,3.11-5.3,3.89c-1.72-0.65-3.06-1.98-4.83-2.4401c-2.32,0.74-4.59,1.6901-6.94,2.3501
		c-1.95,2.38-5.89,3.21-7.22-0.27c-9.65,0.0599-19.39,0.99-28.96-0.62c-2.31-0.1901-4.59,0.35-6.86,0.6
		c-1.69-0.83-3.45-1.95-5.4-1.35c-3.68,0.74-7.49,0.9099-11.09-0.28c-4.84-1.5699-9.84-0.02-14.7,0.51
		c-5.82,0.4399-9.9-5.52-15.78-4.61c-1.93,3.64-6.88,2.51-9.41,0.1699c-3.79-0.21-7.56,0.26-11.33,0.2101
		c-3.9-0.12-7.56-2.23-11.49-1.61c-4.04,0.5599-8.28,0.7799-11.9,2.86c-2.38,1.38-5.56,0.0299-7.4-1.61
		c-0.72-8.9401,0.35-17.9401,0-26.9c-2.91-1.1901-5.95-2.02-9.04-2.51c-0.95-3.98-1.2-8.0701-0.97-12.13
		c0.04-54.04-0.81-108.0701,0.27-162.09c0.4-3.03,1.94-5.8501,1.74-8.9501c-0.15-13.98,0.24-27.96,0.35-41.9299
		c0.76-7,0.35-14.04,0.6-21.05c-0.01-26.6899,1.69-53.33,1.74-80.01c0.72-12.3199,0.1-24.6699,0.99-36.97
		c0.25-11.0701,0.04-22.16,0.86-33.22c0.7-17.91,0.1-35.86,1.25-53.76c0.76-10.3101-0.38-20.75,1.28-30.97
		c8.06-4.38,14.91-12.4401,24.87-11.7201c5.16,2.4501,10.94,0.8301,16.41,1.4301c4.86,0.58,9.83-1.13,14.6,0.46
		c4.06,1.3301,8.2599,0.17,12.27-0.76c3.21,2.9501,7.73,2.4,11.74,2.9501c5.67,0.7699,10.7-3.12,16.36-2.66
		c3.74,0.16,7.48,0.14,11.2-0.29c3.33-0.39,6.5,0.98,9.79,1.26c3.5,0.65,5.33-4.87,8.93-2.97c3.4,1.5599,7.05,0,10.58,0.6899
		c5.37,1.2001,10.1-2.84,15.44-2.6699c4.38,0.12,8.74-0.36,13.08-0.88c5.52-0.5,10.05,3.34,13.97,6.71c2.3,0.12,4.69,0.59,6.97-0.03
		c2.71-1.2899,4.45-3.9199,6.23-6.22c2.6-0.0699,5.65-1.1,7.9,0.6901c1.81,1.23,3.42,3.45,5.92,2.88
		c4.35-0.4601,8.63-1.7201,13.0601-1.3101c3.86,0.42,7.65-1.4,11.47-0.41c3.8,0.76,7.62-0.36,11.45-0.3099
		c5.5,0.26,10.52-2.4401,15.14-5.1c3.65,1.35,7.5699,2.5699,11.49,1.59c8.12-1.73,16.39-1.89,24.66-2.14
		c3.87,0.08,6.9-2.76,10.17-4.4301c-0.39-2.75,0.28-5.4299,1.04-8.0399c0.51-1.2001-0.77-2.04-1.4-2.8101
		c-6.02-5.75-14.79-6.7999-21.43-11.5699c-4.33-3.0601-9.04-5.52-13.4-8.55c-3.31-2.2999-7.24-3.41-10.6899-5.45
		c-5.3101-2.84-9.65-7.25-15.32-9.4601c-7.62-4.4399-15.1-9.24-23.41-12.36c-4.97-1.6899-9.35-4.84-14.55-5.87
		c-6.39-1.8099-12.57-4.5399-18.24-8c-4.49-1.1799-8.65-3.2799-13.07-4.63c-2.02-0.47-2.96-2.4299-4.27-3.7899
		c-0.84,0.1499-2.52,0.4399-3.36,0.59c-4.16-4.91-3.55-11.77-3.13-17.74c1.93,2.5,2.82,5.54,3.45,8.6
		c0.59,0.05,1.77,0.14,2.36,0.1901c-0.83-11.52-1.97-23.0201-3.58-34.4501c-0.79-5.89-2.5699-11.64-2.54-17.62
		c3.18,3.25,2.78,8.16,4.35,12.18c4.01,10.27,6.14,21.3701,11.83,30.94c1.77,4.17,2.8,8.62,4.27,12.92c0.65,0.03,1.95,0.09,2.6,0.12
		c0.68-12.24-2.29-24.23-4.57-36.15c-8.44-33.55-15.14-67.57-25.56-100.6c-1.35-4.22-2.52-8.56-4.62-12.47
		c-0.55-0.31-1.65-0.95-2.2-1.26c-0.16,2.15-0.35,4.28-0.61,6.44c-2.84-4.8-3.6-10.46-5.96-15.49c-0.82,0.12-2.46,0.36-3.28,0.49
		c-0.35-1.71-0.67-3.41-0.93-5.11c2.25,0.55,3.33,2.25,3.47,4.52c1.5,0.04,3.02,0.11,4.54,0.19c-0.58-1.62-1.18-3.24-1.76-4.84
		c6.57,1.17,13.42,1.43,19.7,3.8c-5.03,0.81-10.11,1.38-15.1,2.43c-0.0099,1.29-0.02,2.59-0.0099,3.9c1.25,0.01,2.52,0.04,3.79,0.08
		c0.14-0.76,0.41-2.28,0.55-3.03c9.25,2.78,18.14,6.74,27.58,8.93c14.18,3.83,28.7,6.06,43.16,8.47c8.93,1.69,18.02,2.22,26.97,3.82
		c15.92,2.26,31.8,5.02,47.85,6.25c7.23,0.57,14.41,2.27,21.71,1.5c-2.36-1.79-5.13-2.84-7.94-3.62
		c-22.77-6.86-46.28-10.65-69.53-15.47c-17.37-4.27-35.2-6.23-52.59-10.4c7.48-1.15,14.9,0.95,22.38,0.62
		c12.0099-0.34,24,1.16,35.99,0.33c11.7-0.8199,23.43,0.06,35.13-0.55c11.17-1.25,22.52-1.11,33.61-3.04
		c-3.98-2.78-9.07-2.52-13.66-3.26c-9.39-0.53-18.65-2.43-28.08-2.46c-13.19-1.72-26.52-2.2-39.68-4.18l-0.11-0.77
		c15.29-1.19,30.48-3.33,45.75-4.6201c8.4301-1.22,16.85-2.54,25.19-4.29c1.4901-0.16,2.6801-1.03,3.58-2.2
		c-8.14-1.43-16.46-0.86-24.66-1.73c-22.59-0.07-45-3.94-67.62-3.16l-0.19-0.81c13.16-1.77,26.36-3.53,39.3-6.66
		c11.84-2.9,23.72-5.68,35.45-9.04c-0.03-0.56-0.1-1.69-0.13-2.25c-3.76,0.43-7.53,0.87-11.3,1.12c-2-0.62-4.07-0.51-6.03,0.13
		c-5.79,1.62-11.69-0.54-17.55-0.12c-11.01,0.44-22.02,1.03-33.02,1.66c-6.18,0.06-12.35,1.53-18.51,0.51
		c10.76-2.76,21.8-4.26,32.64-6.68c12.61-2.79,25.33-5.2,37.69-9c2.72-0.97,6.28-0.88,7.85-3.74c-5.4,0.14-10.73,1.12-16.12,1.19
		c-6.48-0.42-13.01-0.64-19.47-0.01c-9.14,1.43-18.41,0.36-27.59,1.17c3.84-2.59,8.59-2.86,12.95-4.07
		c12.2-3.19,24.33-6.64,36.43-10.2c0.07-0.55,0.21-1.65,0.29-2.2c-6.03,0.5099-12.05,1.02-18.07,1.53
		c-4.38-0.44-8.71,0.57-13.06,0.91c-7.7,0.64-15.42,1.25-23.05,2.47c-5.86,1.62-11.99,0.92-17.93,1.9
		c-5.49,0.79-11.01,1.42-16.42,2.64c-16.07,1.76-31.97,4.91-47.75,8.41c-6.43,1.81-12.96,3.36-19.19,5.81
		c-8.51,2.93-16.51,7.74-25.63,8.55c-5.3-1.89-10.83-4.9-13.78-9.9c25.73-3.9,51.7-7.1,76.7599-14.37
		c35.8101-9.73,71.02-21.66,105.28-35.89c0.92-0.56,1.73-1.25,2.44-2.08c-5.3,0.26-10.34,2.42-15.68,2.14
		c-3.45-0.19-6.87,0.32-10.12,1.44c-13.05,1.72-26.14,3.49-38.96,6.52c-10.85,1.42-21.09,5.57-31.94,6.94
		c-5.17,0.82-10.13,2.84-15.41,2.98c7.84-3.71,16.3-5.85,24.34-9.09c21.6-8.4,43.05-17.24,64-27.2c3.33-1.75,7.51-2.51,9.72-5.85
		c-4.67,0.5-9.04,2.35-13.66,3.06c-5.14,0.71-9.87,3.06-14.98,3.86c-12.16,0.97-23.65,5.41-35.69,7.15c3.68-2.53,8-3.75,12.08-5.48
		c12.85-5.41,25.55-11.16,38.27-16.89c2.28-1.14,5.07-2.04,5.89-4.77c-8.91,2.0299-17.67,5.21-26.87,5.59
		c-3.46,2.4-7.88,1.5-11.72,2.75c-10.22,3.35-20.81,5.47-31.39,7.3c5.46-3.14,11.51-5,17.18-7.7c13.53-5.76,26.75-12.19,40-18.53
		c0.06-0.6201,0.18-1.8401,0.24-2.46c-6.63,2.3699-13.29,4.6699-20.23,6.01c-3.16,0.7799-6.49,1.1699-9.36,2.8198
		c-2.67,0.52-5.3,1.1501-7.88,1.9801c-6.92,2.17-14.28,2.97-20.92,5.98c-11.25,3.09-22.61,5.78-33.63,9.66
		c-13.43,3.92-26.48,9.02-39.8,13.27c-14.2,5.31-28.74,9.97-42.01,17.44c-4.84,2.93-10.24,4.95-14.58,8.66
		c-4.05,1.53-7.86,3.58-11.73,5.49c-5.54-2.57-11.93-4.3-15.86-9.31c13.2-4.11,26.55-7.78,39.62-12.29
		c6.68-2.56,13.76-3.83,20.42-6.45c12.98-4.54,25.23-10.83,37.79-16.38c34.48-15.72,68.46-32.6299,101.28-51.59
		c1.85-0.98,3.46-2.36,4.47-4.22c-5.07,1.0099-9.51,3.7899-14.42,5.2899c-3.61,1.0801-7.2401,2.1301-10.86,3.16
		c-0.34,0.3199-1.03,0.9501-1.38,1.26c-2.17-0.64-4.02,0.54-5.92,1.38c-11.86,3.48-23.58,7.53-35.06,12.15
		c-6.74,2.36-13.58,4.5199-20.09,7.49c-18.02,6.11-35.32,14.11-53.26,20.44c1.39-2.84,4.74-3.63,7.26-5.18
		c22.49-12.1801,44.34-25.5,66.1299-38.89c13.5-8.4299,26.9301-16.98,40.0601-25.98c2.99-2.22,6.74-3.79,8.55-7.24
		c-5.25,1.04-9.85,3.8799-14.56,6.26c-4.35,2.21-9.25,3.0599-13.47,5.54c-2.15,0.72-4.25,1.5699-6.27,2.6099
		c-6.1201,3.1201-12.98,4.6801-18.7401,8.53c-0.87,0.29-1.73,0.6001-2.57,0.92c-2.0699,1.16-4.3,2-6.48,2.91
		c-12.82,5.6599-25.27,12.1299-38.05,17.8799c-7.5,4.3301-15.67,7.3301-23.14,11.7101c-5.14,2.4401-9.98,5.5199-15.43,7.26
		c1.28-1.29,2.66-2.4401,4.15-3.4701c28.52-17.33,55.76-36.6599,82.96-55.97c8.44-6.1699,17.08-12.0699,25.22-18.6499
		c3.24-2.6801,7.27-4.6501,9.35-8.49c-6.9,2.1099-12.75,6.5499-19.35,9.3599c-6.7,2.99-13.07,6.99-20.3,8.5601
		c5.3199-5.09,11.86-8.6599,17.54-13.3101c3.13-2.77,7.77-4.4299,9.06-8.77c-3.64,0.9302-6.99,2.7101-9.94,5.02
		c-4.24,1.48-8.28,3.49-12.01,6.01c-6.63,2.3401-12.87,5.72-19.07,9.02c-0.53,0.16-1.6,0.47-2.13,0.6301
		c-0.4,0.3499-1.22,1.0499-1.62,1.3999c-11.69,4.8501-22.34,11.8201-33.69,17.3501C599.38,706.49,569.09,725.49,540.01,746.1
		c-8.4,6.48-16.52,13.32-24.5,20.32c-2.64,2.11-5.2,4.67-8.52,5.62c-3.38-0.27-6.35-2.13-9.44-3.34c-2.17-1.12-5.1-1.95-5.73-4.64
		c5.23-4.01,11.78-5.67,17.5-8.83c14.6-7.84,29.15-15.83,42.94-25.05c14.81-10.0599,29.46-20.3499,43.79-31.0999
		c18.28-13.2001,35.65-27.6101,53.41-41.49c12.77-9.8701,24.9-20.52,37.27-30.8801c2.12-2.09,4.93-3.86,5.64-6.96
		c-7.06,3.6799-14.2,7.29-20.71,11.9c-9.62,3.7699-18.19,9.67-27.14,14.7599C632.22,653.8,620,661.3201,607.74,668.78
		c-3.3,1.9199-6.43,4.33-10.26,5.11c3.35-3.85,7.55-6.77,11.45-10.02c20.66-17.2899,41.36-34.5399,61.49-52.4601
		c1.46-1.24,2.34-2.96,3.09-4.6799c-4.21,0.72-7.67,3.28-11.23,5.4399c-13.71,7.51-26.88,15.9401-40.11,24.25
		c-16.82,9.8901-32.97,20.8201-49.21,31.6201c-5.61,3.51-10.63,8.1299-16.97,10.34c3.75-4.4301,8.6-7.6801,12.96-11.4501
		c25.72-22.23,50.93-45.0399,75.75-68.27c4.72-4.5099,10.3-8.3699,13.76-14c-1.92,0.5-3.65,1.4601-5.07,2.8401
		c-4.92,2.61-9.54,5.79-14.01,9.1c-2.26,0.9301-4.37,2.1901-6.01,4.02c-13.06,6.9701-24.53,16.59-37.65,23.4401
		c2.48-4.52,7.03-7.22,10.47-10.9001c5.85-5.1199,11.23-10.73,17.15-15.7699c4.7599-4.1901,8.95-9,13.92-12.9601
		c2.27-1.7999,4.45-3.9099,5.22-6.8099c-6.53,1.37-10.39,8.2201-17.35,8.52c3.98-4.3099,9.21-7.4501,12.44-12.4301
		c-2.07,0.27-3.92,1.16-5.15,2.8801c-8.58,4.1099-16.56,9.3298-24.81,14.0199c-30.29,17.26-59.53,36.28-88.48,55.6801
		c-2.48,1.7-5.02,3.33-7.72,4.6699c2.72-4.0599,6.66-7.02,10.27-10.23c22.92-20.74,45.67-41.7,67.35-63.75
		c4.06-4.58,8.98-8.29,13.24-12.6799c2.87-3.03,6.95-5.3101,8.08-9.6001c-7.39,3.8501-14.22,8.78-20.87,13.79
		c-2.15,1.16-4.17,2.54-6.02,4.13c-22.6,14.41-44.16,30.36-65.78,46.16c-2.77,1.97-5.34,4.54-8.85,5.04
		c5.38-6.25,11.53-11.77,17.27-17.67c21.08-20.67,41.08-42.35,61.86-63.3c1.25-1.14,1.86-2.75,2.46-4.2799
		c-5.96,2.6099-10.38,7.6199-15.93,10.9299c-14.48,10.97-29.59,21.1-43.98,32.22c-1.8,1.45-3.9,2.48-6.16,2.99
		c9.75-11.01,20.38-21.22,30.59-31.8199c5.58-6.41,11.75-12.27,17.62-18.4c1.06-1.0601,1.28-2.61,1.84-3.9199
		c-1.76,0.8099-3.48,1.7-5.06,2.8099c-9.03,6.24-18.03,12.5399-26.77,19.1801c-31.67,22.3199-62.36,46.01-92.28,70.6199
		c-10.94,9.02-21.66,18.3301-31.9,28.1501c-20.46,18.5999-40.18,38.5299-54.89,62.1099c-1.85,2.51-3.78,6.3601-7.54,5.54
		c-4.57-0.73-9.35-1.79-13.08-4.6799c7.08-6.15,14.66-11.6901,22.16-17.3101c15.19-11.6499,28.59-25.38,42.1-38.88
		c32.3-32.16,61.8-66.9401,91.1-101.8099c6.77-9.16,14.86-17.3101,21.14-26.8301c2.89-2.55,5.32-5.55,7.43-8.77
		c4.51-6.6599,11.25-11.73,14.63-19.1599c-2.05,0.7999-3.84,2.08-5.43,3.5699c-6.42,5.89-13.23,11.37-19.48,17.4501
		c-7.36,5.1699-13.33,12.0599-20.66,17.27c-13.8,10.8999-27.86,21.46-41.64,32.3699c-10.56,8.41-20.7,17.3201-31.2401,25.74
		c-4.7,3.8201-8.96,8.3-14.37,11.1501c0.52-0.8601,1.56-2.5801,2.08-3.4401c22.74-26.03,44.78-52.7001,66.02-79.9701
		c8.63-11.3099,17.39-22.5399,26.49-33.49c1.43-1.6499,2.43-3.6,3.08-5.6699c-3.03,1.8199-5.4,4.46-7.9,6.8999
		C472.01,517.35,444.54,540.12,419.38,565.36c-15.77,15.24-30.86,31.15-46.08,46.9301C366.67,618.98,360.6,626.2,353.98,632.88
		c-1.23,1.47-2.5,2.9-3.79,4.3099c0.37-1.3599,0.54-2.83,1.56-3.8899c8.43-9.79,16-20.27,23.9-30.48
		c10.96-15.05,22.63-29.5801,33.49-44.7001c5.82-8.0699,12.6-15.36,18.82-23.1c4.94-6.4,9.99-12.71,15.21-18.89
		C452,505.5601,459.86,494.2,468.88,483.78c2.07-2.5701,4.84-4.8201,5.45-8.24c-5.53,2.53-8.78,8.1299-14.34,10.59
		c3.12-7.9801,9.65-13.9601,13.38-21.59c-3.39,1.3099-5.51,4.3599-7.99,6.83c-15.76,15.88-30.92,32.36-46.93,47.99
		c-25.81,19.34-50.34,40.2999-75.4,60.58c-12.5099,10.26-25.27,20.24-37.0699,31.3201c0.67,3.1799-1.9301,2.4199-3.3701,1.21
		c16.6-18.3999,31.8-37.95,47.5601-57.0699c7.71-9.67,15.92-18.9401,23.43-28.78c3.38-4.2799,7.24-8.23,9.86-13.0699
		c7.5-7.2201,12.68-16.4501,19.77-24.0701c2.48-2.9199,5.3199-5.5801,7.22-8.95c2.31-2.01,4.81-3.89,6.6-6.4
		c1.44-2.7101,1.59-6.02,3.65-8.41c3.06-3.87,6.4-7.59,8.66-12.03c-4.59,1.01-7.06,5.3801-10.4399,8.22
		c-8.46,7.2201-15.98,15.4401-24.25,22.8501c-7.85,7.1-15.1,14.83-22.86,22.02c-18.49,14.96-36.84,30.09-55.26,45.1399
		c-13.18,10.5701-26.16,21.3901-38.91,32.49C254.37,605.49,232.94,628.5,212.19,652.04c-3.38,3.6899-5.99,8.6199-10.98,10.35
		c-8.11,3.0499-15.97,6.76-24.21,9.4301c3.3-5.3801,7.73-9.9102,11.66-14.8101c12.8199-15.5701,24.43-32.11,35.3799-49.04
		c6.42-8.6599,11.3101-18.3999,18.57-26.4399c9.72-12.3,19.95-24.2,29.17-36.89c9.06-11.0699,16.59-23.27,25.37-34.54
		c11.06-15.21,22.39-30.22,33.39-45.47c4.61-7.34,10.46-13.77,14.95-21.1901c3.65-4.96,7.45-9.8099,10.81-14.98
		c2-3.35,5.22-6.04,6.03-10.01c-4.54,2.28-7.31,6.72-11.08,9.95C338.21,441.64,325.03,454.74,312.03,468.01
		c-3.02,3.1499-5.67,6.6799-9.19,9.33c1.22-5.5599,4.74-10.13,7.15-15.17c7.64-13.5299,14.22-27.6299,21.94-41.1099
		c2.89-5.3101,6.87-9.9501,9.43-15.4501c-3.65,0.72-5.91,3.8099-8.1899,6.4401c-14.36,17.0699-27.63,35.01-41.45,52.51
		c-7.5,9.6099-14.16,19.8899-22.28,29c4.65-8.49,10.45-16.28,15.72-24.3801c8.32-11.71,15.86-23.99,25.06-35.0399
		c1.36-1.66,2.35-3.59,3.11-5.59c-4.36,1.52-7,5.51-10.25,8.52c-11.24,12.4199-23.54,23.8099-34.8,36.22
		c-12.98,13.6299-25.43,27.75-38.51,41.29c-16.74,18.0798-32.52,37.0199-47.79,56.3599c-3.41,4.74-7.86,8.72-13.18,11.22
		c6.38-12.5499,14.94-23.8499,22.08-35.96c7.79-11.8099,15.05-23.96,22.17-36.1799c6.87-10.9401,13.31-22.15,19.5-33.49
		c5.32-10.5,11.85-20.3401,16.87-31.01c3.2-4.1201,5.09-9.03,7.91-13.4c4.79-7.5599,8.76-15.61,13.52-23.1901
		c2.68-4.8599,6.04-9.33,8.4-14.3599c-1.25,0.5599-2.73,0.8398-3.66,1.9199c-16.71,19.9199-33.26,39.98-49.28,60.46
		c-13.71,16.0901-26.92,32.6201-39.44,49.65c-9.22,12.3-17.64,25.17-26.24,37.9c-1.87,2.78-3.75,5.61-6.2,7.9399
		c-12.05,10.8701-23.31,22.5701-35.33,33.47c1.07-5.5299,4.28-10.2699,6.52-15.3599c2.64-5.0601,4.25-10.6901,7.7-15.3
		c1.47-1.87,3.47-3.3,4.7-5.35c-0.45-0.37-1.33-1.11-1.78-1.4801c3.73-9.1699,8.23-18,11.75-27.25
		c10.82-24.52,21.35-49.1799,30.99-74.1899c4.59-13.6599,11.51-26.48,15.41-40.35c3.73-6.58,6.08-13.84,9.1-20.76
		c1.6-5.28,5.12-9.78,6.31-15.2001c-4.55,1.5801-4.09,8.1201-8.74,9.6801c1.26-2.91,2.62-5.7999,3.23-8.9401
		c-2.2,1.0601-3.78,2.92-5.0699,4.9301c-7.26,10.7101-13.73,21.9301-21.01,32.63c-4.52,6.3101-7.87,13.45-13.08,19.26
		c1.41-5.1599,4.3-9.72,6.37-14.61c6.07-14.12,12.11-28.28,19.22-41.92c1.37-2.6499,2.5699-5.3799,3.46-8.22
		c-3.45,1.4-4.68,5.24-6.9,7.9299C177.36,386.38,167.36,401.3,157.02,415.98c-13.54,19.87-26.9,39.85-40.15,59.91
		c-6.81,9.65-13.13,19.63-19.48,29.58c-5.48,8.7-11.56,16.99-17.2,25.5901c-2.92,4.33-6.99,7.72-11.05,10.95
		c2.35-7.71,6.19-14.8501,9.44-22.2c12.51-28.3101,23.88-57.1201,35.08-85.9601c3.36-8.75,6.9-17.4401,9.73-26.38
		c2.53-5.3201,4.21-11.01,6.88-16.29c1.71-4.8099,5.32-8.6899,6.71-13.6399c-3.56,2.7-5.1,7.1699-8,10.49
		c-3.16,3.61-4.09,9.27-8.72,11.3799c4.36-10.49,8.64-21.0299,13.74-31.2c1.58-3.12,3.03-6.34,3.83-9.77
		c-2.87,2.6301-4.66,6.14-6.79,9.3401c-13.43,21.2-27.5099,41.98-40.95,63.1699c-13.04,20.54-27.03,40.46-39.87,61.13
		c-2.4901,3.88-4.51,8.09-7.4901,11.63c-7.09,7.9-14.96,15.04-22.67,22.3301c-4,3.73-7.72,7.78-11.98,11.23
		c1.65-6.8401,4.96-13.3,10.25-18.03c-0.51-0.46-1.53-1.38-2.04-1.84c11.25-26.02,23.58-51.58,34.23-77.86
		c4.54-8.47,7.54-17.65,11.72-26.28c3.45-6.12,5.45-12.9,8.74-19.0801c2.62-4.9399,4.42-10.27,6.97-15.24
		c1.95-4.0599,4.19-8.0499,5.14-12.49c-3.79,2.63-4.9,7.46-7.46,11.1001C65.77,395.34,54.24,412.1,43.32,429.23
		c-5.37,8.15-10.66,16.38-16.45,24.22c2.77-10.4199,7.91-20.05,13.17-29.4099c2.1-3.23,3.51-6.8201,4.48-10.53
		c1.18-4.5,4.09-8.42,4.54-13.12c-1.39,1.12-2.58,2.47-3.48,4.0199C38.19,416.51,29.99,428.08,22.52,440.13
		c-0.59,0.5499-1.76,1.67-2.35,2.22c2.14-12.5599,5.7-24.8199,8.37-37.27c3.18-15.0299,7.83-29.6801,10.83-44.74
		c1.99-7.25,4.17-14.47,5.55-21.87c-1.07,0.67-2.34,1.25-2.66,2.61c-5.3,13.2401-10.81,26.41-16.7,39.41
		C16.94,399.8999,8.76,419.51,0,438.87V555.8c7.52-7.55,13.22-16.6401,20.3-24.5601c5.88-6.55,11.36-13.5,17.87-19.4399
		c-1.08,2.6-2.33,5.1299-3.87,7.49c-3.34,5.09-6.03,10.55-9.02,15.85c-2.53,4.4501-4.41,9.36-7.96,13.15
		c-5.8,6.1699-11.95,12.03-17.32,18.6v106.34c3.26-2.73,6.66-5.3201,10.29-7.54C7.52,671.54,2.99,676.3,0,682.03v115.42
		c1.57,1.36,2.79,3.05,3.73,4.9c-0.9301-0.09-2.8-0.28-3.73-0.37v25.78c7.44,1.38,14.7,3.58,22.17,4.83
		c4.61,1.2,9.49,1.52,13.9,3.39c1.24,3.3,2.01,6.76,2.9,10.17c1.36,5,0.54,10.2,0.29,15.29c-6.59-0.78-12.97-2.65-19.45-3.93
		c-6.61-1.46-13.27-2.65-19.81-4.39v14.62c12.68,2.8,25.59,4.26,38.32,6.76c10.02,2.24,20.41,3.15,29.95,7.21
		c0.81,1.15,1.43,2.45,2.14,3.7c0.36-0.78,1.1-2.36,1.46-3.14c1.05,0.57,2.1,1.15,3.15,1.75c1.35-0.21,2.7-0.41,4.04-0.6
		c-0.58-0.76-1.16-1.5-1.74-2.24c0.88-3.01,1.44-6.09,1.72-9.2c0.57-5.77,2.65-11.23,3.65-16.91c0.62-3.76,1.78-7.39,2.98-10.98
		c5.28,0.7599,10.6,1.72,15.56,3.78c0.07,3.51-0.54,7.13,0.33,10.58c1.72,1.6,3.81,2.73,5.76,4.03c0.75-2.9,1.38-5.84,1.77-8.8
		l1.33-0.04c-0.13,7.57-0.86,15.18,0.07,22.73c1.9-0.01,3.79-0.02,5.69-0.02c0.58-1.45,1.16-2.95,2.41-3.95
		c1.6-4.17,2.42-8.6,4.2-12.7c3.46,1.71,7.1201,3.15,10.22,5.49c0.97,2.96-0.38,6.24-0.62,9.3c1.58,1.45,3.64,1.88,5.72,1.98
		c1.56-1.99,3.2401-3.8799,5.09-5.59c0.3,3.87,0.49,7.77,1.2,11.61c1.62-0.08,3.24-0.15,4.86-0.21c0.27-2.67,0.48-5.35,0.69-8.01
		c2.72,0.82,5.51,1.81,7.55,3.88c0.56,5.92-0.66,11.88-0.37,17.83c0.19,1.56-0.38,3.9,1.53,4.61c3.47,1.35,7.3199,1.3799,10.97,1.98
		c2.39-5.52,2.12-11.67,4.03-17.31c1.96,3.16,1.52,6.98,1.81,10.54c0.29-0.43,0.87-1.29,1.16-1.72c1.55,0.1,3.1,0.22,4.66,0.33
		c0.3701-1.46,0.7401-2.91,1.11-4.35c3.93,1.84,8.53,2.92,11.73,5.92c0.8,5.3,0.23,10.71,1.06,16.02
		c0.74,4.91,0.14,10.12,2.41,14.71c1.36-0.52,3.73-0.08,3.95-2.03c1.01-8.5-0.33-17.09,0.07-25.63
		c10.95,3.83,21.15,9.56,31.51,14.73c3.84,1.6,5.85,5.39,8.7,8.17c1.08-1.68,2.91-1.9,4.71-1.93c-1.77-3.49-3.46-7.02-4.75-10.71
		c3.4901,1.64,6.5,4.08,9.7,6.21c13.97,9.33,27.81,18.88,41.92,28c3.45,2.28,6.8,5.02,11.03,5.65c1.67,1.03,3.35,2.08,5.02,3.15
		c1.6,0.81,3.19,1.65,4.78,2.53c0.85-1.0099,1.7-2.0099,2.55-2.99c-12.29-16.18-26.1-31.18-39.09-46.8
		c-3.3-4.11-7.27-7.71-9.91-12.33c2.08,0.22,4.16,0.51,6.25,0.72c-4.89-6.04-12.8-8.29-18.19-13.75c4.94,0.84,9.13,3.72,13.6,5.79
		c7.69,3.66,15.24,7.57,22.9,11.29c7.13,3.41,12.97,8.83,19.39,13.33c13.25,10.22,27.01,19.74,40.37,29.81
		c1.1201-0.53,2.23-1.05,3.35-1.55c-2.26-3.27-5.11-6.04-7.87-8.87c-14.79-16.31-30.23-32-45.33-48.02
		c-2.6-2.79-5.44-5.41-7.46-8.68c3.95,0.75,8.13,0.84,11.79,2.67c7.16,3.38,14.01,7.36,21.13,10.82c5.31,2.56,10.2,5.98,15.79,7.94
		c-2.19-3.36-5.54-5.64-8.57-8.15c-11.51-8.87-22.87-17.92-34.46-26.68c-8.7-7.02-18.04-13.25-26.4901-20.56
		c3.81-0.22,7.34,1.4,10,4.05c6.1,5.33,12.52,10.28,18.81,15.4c26.9,22.28,55.34,42.58,83.17,63.66c3.83,2.91,6.3,7.12,9.32,10.79
		c7.66,9.43,14.99,19.16,23.09,28.24c0.65-0.12,1.96-0.36,2.62-0.48c-0.58-2.69-1.28-5.38-1.83-8.06c1.8199,1.68,3.54,3.5,5.2,5.36
		c1.12-0.19,2.24-0.37,3.37-0.54c0.2-3.41-1.17-6.58-2.53-9.61l1.47-0.6c1.15,1.82,2.3,3.66,3.46,5.49
		c1.28-1.86,2.52-3.74,3.75-5.62c0.61-0.14,1.84-0.42,2.45-0.55c-1.53-6.51-4.64-12.54-5.81-19.12c2.9,1.82,4.8,4.68,6.89,7.32
		c1.35,1.54,2.7,3.76,5.15,2.95c-1.85-7.3-6.64-13.39-8.71-20.61c4.2,2.73,7.36,6.69,11.25,9.8c4.73,3.82,7.4901,9.35,10.92,14.25
		c7.3,10.59,14.68,21.15,22.46,31.4c0.65,0.26,1.97,0.77,2.63,1.03c-1.02-3.42-2.42-6.69-3.78-9.97
		c-5.13-12.24-9.99-24.6-15.48-36.69c0.32-0.54,0.96-1.61,1.28-2.14l-1.55-1.08c0.47,0.01,0.95,0.04,1.43,0.08
		c0.51,4.45,3.59,7.92,5.46,11.84c5.59,10.96,12.1299,21.39,18.1299,32.13c2.2,4.2,6.07,7.98,5.69,13.07
		c-4.12,1.53-6.84,5.06-9.64,8.25c-4.69,2.96-9.4,5.92-14.2,8.69c-5.98,2.35-12.22,4.08-18.52,5.32c-6,1.02-11.05,4.65-16.77,6.51
		c-6.1201,2.11-11.53,5.7-17.32,8.49c-4.81,2.84-9.7401,5.5-14.39,8.61c-3.84,1.79-7.83,3.3199-11.34,5.75
		c-3.9,2.79-8.9,3.37-12.68,6.35c-4.12,1.7001-7.63,4.51-11.63,6.4601c-5.22,2.4399-10.3,5.1699-15.68,7.25
		c-12.33,6.35-24.94,12.0699-37.04,18.85c-9.12,5.3099-19.1,9.1599-27.62,15.46c-5.35,1.75-10.03,5.01-15.36,6.83
		c-8.6299,3.1901-16.78,7.51-25,11.5801c-5.31,4.14-11.79,6.5399-16.81,11.0599c-2.77,2.4501,0.41,5.8201,1.28,8.4701
		c2.23,0.6399,4.52,0.99,6.85,0.96c3.13,4.25,6,9.63,11.52,11.03c6.42,0.9399,10.93-5.17,17-5.87
		c13.66,0.71,27.26,2.2699,40.75,4.5599c4.63,1.38,9.51,1.38,14.23,2.34c4.13,0.4301,8.43,1.89,12.53,0.51
		c2.43-0.7799,4.89-1.89,7.5-1.23c5.29,0.9,10.77,0.48,15.93,2.12c3.55,1.15,7.26,1.74,11.01,1.53c1.14-0.97,2.07-2.72,3.83-2.25
		c8.06,1.01,16.18,0.02,24.28,0.62c5.39-0.3199,10.6,2.23,15.98,1.0699c5.06-0.88,10.17-0.13,15.2401,0.2301
		c4.56,0.1799,9.12,0.09,13.68,0.33c5.65,0.3199,11.57-0.11,16.83,2.36c0.63,1.86,0.42,4.75,2.73,5.47
		c1.95,0.39,4.03,0.41,5.96-0.13c1.31-1.3199,2.29-2.9399,3.61-4.25c2.99-0.35,6.08-0.1,8.98-1.0699
		c5.58-1.88,11.37,0.23,17.01,0.6799c2.71,0.04,5.37-0.58,8.06-0.87c4.57,2.77,9.36,5.2001,13.68,8.3601
		c3.05,2.0199,4.72,6.0299,3.89,9.62c-0.96,5.0499-0.21,10.22-0.66,15.3199c-1.37,12.29-0.21,24.7-1.36,37.01
		c0.41,9.01-1.33,17.96-0.57,26.97c-0.39,12.66-0.92,25.3201-0.74,37.99c0.32,9-0.83,17.98-0.28,26.97
		c0.23,4.3-0.93,8.55-0.49,12.8501c0.85,7.0399,0.52,14.1499,0.56,21.23c-0.1,5.72,0.18,11.47-0.63,17.16
		c-0.71,7.5699-0.23,15.1899-0.45,22.7799c-0.59,8.99-0.27,18-0.64,27.01c-0.02,27.67-1.13,55.3101-1.1801,82.98
		c-0.23,12.3301,0.4,24.7001-0.6899,36.99c-0.41,34.3401,0.0699,68.6901-0.1801,103.03c-0.12,5.73-2.3199,11.2001-2.0699,16.9601
		c0.12,5.8099-0.17,11.62-0.77,17.4099c-4.91,1.5901-9.04,5.9501-14.52,5.24c-5.27-0.38-10.55-0.35-15.8199-0.1599
		c-2.61-1.7001-5.75-1.63-8.4301-0.14c-3.37-0.4601-6.74-0.8201-10.13-0.89c-0.4399,0.4299-1.33,1.2999-1.77,1.74
		c-0.9-0.36-1.81-0.6901-2.71-0.99c-4.78-2.1901-9.06,3.47-13.92,1.8099c-5.34-1.25-10.79-1.96-16.26-1.3099
		c-1.26-1.1801-2.15-3.7001-4.25-2.78c-4.22,1.3201-8.45-0.72-12.7,0.04c-3.44,1.1-5.63-3.1-9.06-2.53
		c-3.48,0.49-6.48,2.55-9.78,3.65c-1.01-0.9-2.06-1.72-3.14-2.48c-2.19-0.49-4.13,1.01-6.07,1.7799c-3.07-0.59-5.98-1.74-8.92-2.73
		c-2.7-1.0499-5.38,0.5801-8.05,0.9c-2.34-0.13-4.59-0.92-6.9301-0.9c-2.7599,0.23-5.39,1.1801-8.12,1.5801
		c-2.46,0.7799-4.07-1.65-6.14-2.4401c-1.7,0.1801-3.27,0.92-4.86,1.48c-3.94-0.85-7.98-1.8199-12.0099-0.86
		c-1.8701-0.8199-3.6801-2.45-5.86-1.89c-6.55,1.2201-13.4,1.64-19.96,0.26c-5.28-0.71-11.23-2.34-16.17,0.4501
		c-1.66,0.14-3.32,0.2799-4.97,0.4399c-0.39-0.53-1.18-1.6-1.57-2.14c-3.39,0.51-6.9,1.4-10.31,0.62
		c-1.99-1.1899-3.38-4.1799-6.07-3.4c-1.48,0.66-2.66,1.79-4.03,2.65c-4.83,1.89-10.1901,0.3301-15.09,1.9401
		c-1.29-0.52-2.57-1.0601-3.89-1.42c-2.69-0.0499-5.17,1.54-7.85,1.35c-0.81-0.77-1.58-1.5599-2.32-2.35
		c-6.82-2.21-14.07-1.34-21.11-1.34c-0.39,0.5699-1.1801,1.72-1.58,2.2999c-7.51-2.1399-15.44-1.59-23.15-2.36
		c-1.32-0.6699-2.58-1.52-4.04-1.7899c-2.11,0.33-3.96,1.4199-5.89,2.25c-0.94-1.16-1.3-3.12-3.04-3.3101
		c-3.16-1.01-5.66,1.6801-7.04,4.16c-3.06-0.03-6.1299-0.21-9.15-0.71c-2.39,0.45-4.72,1.1699-6.95,2.1499
		c-2.79-1.35-5.85-1.83-8.91-2.0499c-3.25,0.1799-6.51-0.02-9.76,0.0299c-3.75-0.95-7.52,0.3301-11.29,0.28
		c-4.31-0.0699-8.63-0.01-12.93-0.22c-3.94-0.7-7.55-2.91-11.66-2.75c-0.63,0.6899-1.26,1.39-1.89,2.11
		c-5.85-0.49-11.77-0.71-17.6-0.09c-5.33,2.12-11.08,3.23-16.83,2.73c-5.68-0.83-11.36,0.61-17.05,0.03
		c-5.12-0.5801-9.83,2.6599-14.96,1.62c-3.94-0.67-7.56,1.46-11.45,1.59c0.05-1.33,0.1201-2.63,0.1801-3.91
		c-1.59-1.33-3.4-2.84-5.64-2.23c-2.73,0.9301-4.85,3.04-7.09,4.78V1944h2592v-301.76
		C2586.47,1644.08,2580.6599,1643.26,2574.97,1643.4301z M1309.1,1024.25C1312.4301,1024.39,1307.54,1027.25,1309.1,1024.25
		L1309.1,1024.25z M1306.24,740.47c0.88-1.1399,3.3101,0.05,2.35,1.4399C1307.6801,743.13,1305.17,741.8401,1306.24,740.47z
		 M201.04,381.0601C204.31,381.1899,199.57,384.14,201.04,381.0601L201.04,381.0601z M20.02,638.96
		c4.07-3.49,7.61-7.5699,11.9-10.8099c-0.6,3.67-2.35,7.16-5.25,9.5499c-4.79,4.25-9.48,8.6301-14.4399,12.6901
		C12.62,645.46,16.76,642.1899,20.02,638.96z M15.63,693.96c-0.84,0.8-3.19,0.5901-3.24-0.79
		C13.23,692.35,15.54,692.63,15.63,693.96z M3.26,686.13c2.25-2.78,4.81-5.3199,7.73-7.4c-0.96,2.73-2,5.47-3.54,7.9399
		C6.44,688.35,4.32,686.98,3.26,686.13z M12.97,806.08c-1.96-0.19-2.5-2.15-2.92-3.73c6.09,2.06,12.14,4.39,17.96,7.09l0.9,1.34
		C23.48,809.65,18.26,807.72,12.97,806.08z M22.49,703.47c1.69-1.52,4.02-1.1,6.09-1.12c-0.33,3.26-0.46,6.54-0.75,9.8199
		c-0.47-0.0399-1.42-0.1199-1.89-0.1599C24.81,709.15,24.1,706.12,22.49,703.47z M25.18,691.71
		c-2.81-0.5699-5.87-0.6199-8.25-2.4299c4.57-4.8401,10.14-8.6801,15.57-12.47l1.63-0.3201C30.95,681.4399,27.58,686.3,25.18,691.71
		z M578.41,962.33c-0.48,0.11-1.43,0.33-1.91,0.44C574.15,959.78,579.04,958.61,578.41,962.33z M578.3,966.39
		c0.6-0.71,1.21-1.41,1.85-2.08c1.86,3.27,3.3,6.77,4.11,10.46C580.23,974.32,579.97,969.29,578.3,966.39z M590.06,829
		c-1.68-3.95-3.66-7.77-4.89-11.89c2.89,0.85,5.63,2.23,8.01,4.1c0.85,3.46-0.1,7.06-0.19,10.57
		C591.66,831.26,590.45,830.42,590.06,829z M608.2,997.54c-3.56-1.7-7.09-4.41-7.78-8.54c-2.21-13.77-4.68-27.51-7.58-41.15
		c-0.56-2.99-0.9901-6.0099-1.1801-9.04c2.22,2.24,2.8701,5.46,3.96,8.33c2.22,7.4,5.46,14.46,7.57,21.9
		c1.73,8.36,3.77,16.67,5.84,24.95C608.75,995.17,608.47,996.35,608.2,997.54z M617.27,904.48c-3.26-4.77-3.85-10.68-5.75-16.01
		c-2.3-6.2599-2.8-12.95-4.06-19.4399c-2.62-15.25-7.37-30.01-10.92-45.02c4.57,0.9,8.27,3.9,12.14,6.3
		c1.1,0.84,2.51,1.46,3.24,2.71c0.62,11.36,2.1,22.67,2.35,34.07c0.6,7.66,1.16,15.3199,2.03,22.96
		C616.67,894.86,617.83,899.63,617.27,904.48z M661.06,1023.85c-1.13-11.0099-1.06-22.1-1.48-33.15c2.36,1.25,2.72,4.09,3.49,6.38
		c2.98,9.58,4.38,19.63,4.35,29.66C665.01,1026.49,663.01,1025.13,661.06,1023.85z M701.57,877.03c-3.75,1.74-7.9,2.24-11.67,3.91
		c-3.88,1.01-7.4-1.39-10.6801-3.07c1.34,6.65,0.82,13.43,1.16,20.15c1.51,8.95,0.25,18.11,1.44,27.11
		c0.43,5.98,1.39,11.91,1.71,17.91c1.55,12.64,4.67,25,7.25,37.46c2.22,12.33,6.5,24.17,8.58,36.53
		c0.93,6.84,4.2,13.0699,4.69,19.98c0.42,3.11,0.97,6.2,1.25,9.34c-4.83-1.7899-9.77-3.61-13.99-6.6c-1.71-0.96-1.91-2.95-2.2-4.65
		c-1.52,0.0801-2.9,0.64-4.15,1.4601c-2.34-1.5601-4.9901-2.7101-7.01-4.67c-0.79-3.88-0.62-7.85-0.83-11.77
		c-0.1-4.72-0.59-9.55,0.71-14.15c2.46,1.92,2.87,5.15,3.7,7.95c1.37,5.68,3.61,11.1401,4.5,16.95c0.71,0,2.1299-0.02,2.84-0.02
		c-1.18-23.34-1.74-46.79-5.69-69.87c-1.87-10.69-3.36-21.44-5.55-32.07c-2.2-17.33-2.07-35.1-6.76-52.04
		c-1.74,0.04-3.28,0.63-4.33,2.07c-1.68-3.5-2.7599-7.23-3.49-11.03c3.43,0.2401,5.31,3.11,7.09,5.6801
		c3.41,0.03,5.66,2.85,8.77,3.7599c-0.36-1.12-0.72-2.23-1.08-3.33c7.19-0.22,14.14,2.12,21.32,2.11
		C699.76,876.35,700.96,876.81,701.57,877.03z M668.18,866.54c5.32,0.42,10.66,0.3,16,0.21c0.62,0.26,1.86,0.78,2.48,1.04
		c-4,1.91-8.05,4.06-12.61,4.07C671.43,871.07,669.02,869.21,668.18,866.54z M680,854.01c4.7,0.08,9.3-1.44,14.03-0.89
		c-3.07,2.21-6.76,3.22-10.2,4.68c-3.48,1.51-7.55,2.02-10.21,4.98c-2.53,0.74-4.99,1.73-7.54,2.37c-2.46-0.47-4.66-1.78-7.06-2.45
		c-0.1,7.76,1.86,15.5,0.92,23.25c-0.35,0.56-1.07,1.66-1.42,2.22c-1.38-5.03-2.36-10.16-3.99-15.1c-1.34-4.53-3.32-8.86-4.15-13.53
		c1.98,0.4901,3.97,1.06,5.98,1.51c-0.99-2.97-4.21-4.22-5.45-7C660.6,853.94,670.3,854,680,854.01z M660.15,844.79
		c0.5,0.25,1.5099,0.75,2.02,1c-1.62,0.92-3.2,1.89-4.69,2.9901c-2.79,0.43-4.54,3.04-7.37,3.31c-4.75,1.12-8.64-2.78-11.42-6.09
		C645.7,844.28,653.01,845.21,660.15,844.79z M645.98,854.99c2.29,1.62,1.43,4.68,1.58,7.07c-0.39,10.37-0.52,20.77-1.21,31.13
		c-0.41-0.52-1.25-1.57-1.67-2.1c-2.98-12.82-5.64-25.79-10.37-38.1201c-0.77-1.95-1.09-4.03-1.28-6.09
		C637.96,848.44,641.97,851.85,645.98,854.99z M634.22,998.07c1.53,5.07,5.22,9.38,5.54,14.82c-5.86-1.24-11.54-3.44-16.85-6.08
		c-1.27-3.82-2.06-7.84-1.93-11.86c0.18-8.82-0.49-17.62-0.85-26.42c1.56-1.71,2.23,1.6299,2.83,2.6
		c2.45,7.19,6.2599,13.83,8.64,21.03C633.33,993.63,633.38,996.08,634.22,998.07z M627.05,842c1.04,0.89,2.72,1.46,3.01,2.97
		c0.54,9.13-0.86,18.1801-1.14,27.28c-1.9,1.58-2.11-1.79-2.55-2.9c-2.61-11.3-6.59-22.2-10.56-33.0699
		C620.28,836.33,623.5,839.76,627.05,842z M654.06,812.96c-5.03,5.0099-12.69,5.74-18.39,9.75c-3.36,2.5099-7.38,3.91-10.71,6.46
		c-2.67,1.55-5.93,3.98-9.07,2.21c-3.81-2.19-8.82-3.78-10.52-8.22c10.45-2.67,21.18-4.12,31.63-6.77
		C642.75,815.53,648.2,813.11,654.06,812.96z M628.23,805.77c-3.06,3.56-7.7,4.99-11.3,7.89c-5,3.1801-10.11,6.9-15.99,8
		c-4.09-1.65-8.08-3.75-11.18-6.95c6.33-2.98,13.44-3.65,20.16-5.41C616.04,808.19,622.04,806.41,628.23,805.77z M599.94,800.08
		c2.34-0.3,4.73-1.26,7.07-0.38c-6.15,5.06-12.62,10.02-20.11,12.94c-3.95-0.56-7.41-2.93-10.72-5.02c-0.17-0.59-0.5-1.76-0.67-2.34
		C583.65,803.54,591.71,801.44,599.94,800.08z M578.43,812.73c1.76,0.66,1.41,2.82,1.82,4.32c2.44,16.17,7.39,31.87,9.22,48.13
		c-1.5699-0.84-2.1899-2.45-2.67-4c-2.23-8.27-6.1-16-8.16-24.32c-2.65-10.09-8.15-19.16-10.89-29.19
		C571.82,808.03,574.97,810.85,578.43,812.73z M557.58,801.46c1.77,1.08,4.06,1.72,5.24,3.56c1.84,17.05,5.37,33.88,7.33,50.93
		c-2.3-2.02-2.46-5.26-3.46-7.95c-2.12-7.83-5.29-15.3-7.77-23c-3.8-9.11-8.45-17.93-11.17-27.45
		C551.41,797.6,554.39,799.96,557.58,801.46z M564.18,785.24c-3.71,3.22-7.46,6.79-12.19,8.4c-4.12-0.8-8.24-2.63-11.05-5.85
		c6.76-3.91,14.52-5.44,21.81-8.05c4.78-1.68,9.4-3.8,14.34-4.97C573.22,778.75,568.64,781.96,564.18,785.24z M545.21,816.63
		c-1.95-3.23-3.07-6.84-4.76-10.18c-2.77-5.48-5.79-10.85-7.92-16.62c3.86,0.63,7.75,2.48,10.61,5.1c0.79,5.03,1.32,10.12,2.1,15.18
		C545.45,812.25,546.2,814.54,545.21,816.63z M548.32,769.27c6.93-3.53,13.89-7.04,21.05-10.1c-1.6,3.38-5.22,4.86-7.87,7.26
		c-6.48,4.75-12.97,9.65-18.22,15.8c-1.53,1.68-3.41,3-5.2,4.39c-4.07-1.17-8.22-2.5-11.74-4.91c-0.9901-0.57-2.36-2.63-0.34-2.95
		C533.18,774.99,541.01,772.75,548.32,769.27z M531.81,813.12c-3-2.13-3.26-6.09-4.97-9.09c-3.59-8.0601-8.98-15.21-12.4-23.33
		c3.95,0.93,7.38,3.23,10.97,5.04c1.71,0.71,1.67,2.78,2.03,4.33C528.53,797.82,530.85,805.34,531.81,813.12z M533.86,764.31
		c-1.66,4.26-5.48,6.96-8.16,10.51c-1.25,1.63-2.95,2.8-4.68,3.88c-3.28-1.04-6.49-2.43-9.06-4.78
		C518.9,770.01,526.52,767.39,533.86,764.31z M506.31,779.17c2.13,7.27,5.6,14.16,6.61,21.74c-4.04-3.83-6.02-9.23-8.84-13.94
		c-2.45-4.47-5.51-8.61-7.47-13.34C500.1,774.44,505.54,774.89,506.31,779.17z M493.99,781.89c-2.3199,0.07-2.73-2.46-3.88-3.87
		c-2.05-3.49-4.56-6.68-6.46-10.26c2.91,0.41,5.6,1.76,7.95,3.49C492.37,774.8,492.81,778.42,493.99,781.89z M510.02,736.1599
		c2.13-1.22,4.2-2.6199,6.66-3.0999c-3.68,4.49-8.29,8.0999-12.31,12.28c-6.16,5.6499-10.53,12.9399-16.55,18.6899
		c-4.87-2.38-11.59-2.66-14.45-7.86c3.12-1.4,6.01-3.22,8.96-4.95C491.48,746.05,501.03,741.6,510.02,736.1599z M504.25,718.72
		c-7.83,8.26-16.44,15.8-23.56,24.72c-3.01,3.5801-6.21,7.1201-7.75,11.6401c-3.88,1.59-7.84,0.28-11.41-1.45
		c-0.82-3.31-4.32-4.07-6.76-5.8199c1.69-1.3301,3.44-2.6001,5.32-3.6401c9.8-5.1699,19.42-10.6599,28.96-16.2999
		C494.2,724.95,498.67,720.87,504.25,718.72z M454.9,774.01c-2.24-1.99-3.23-4.87-4.5-7.48c-2.28-4.83-5.22-9.33-7.12-14.32
		c2.49,0.66,5.71,1,7.39,3.11C451.91,761.59,454.55,767.58,454.9,774.01z M465.17,727.77c-1.94,4.13-5.23,7.38-7.78,11.12
		c-2.28,2.91-3.95,6.25-6.41,9.0199c-3.79,0.1801-7.9301-0.6199-10.94-3.0399c-1.34-1.27,0.45-2.73,1.45-3.41
		c6.26-4.6299,13.31-7.98,19.88-12.1C462.53,728.5901,463.86,728.1799,465.17,727.77z M441.6,775.13c-2.48-1.94-3.81-4.82-5.3-7.49
		c-3.69-6.75-7.83-13.25-12.22-19.57c-0.7-1.1201-1.19-2.32-1.48-3.6c4.96,1.3201,9.64,3.48,14.28,5.65
		C438.12,758.52,440.34,766.74,441.6,775.13z M458.07,715.01c-0.78,2.85-3.05,4.86-4.83,7.1c-3.91,4.76-8.15,9.2301-12.03,14.02
		c-2.33,2.7001-4.66,5.7101-8.18,6.87c-5.09-2.15-11.25-2.64-15.03-7.0801C431.43,729.1,444.59,721.7,458.07,715.01z M440.27,707.14
		c-4.8,6.5299-10.89,11.96-15.92,18.2999c-2.4,3.01-5.59,5.73-6.45,9.66c-5.86,1.9501-12.74-0.7599-16.96-5
		c3.91-2.64,8.41-4.23,12.29-6.9c4.44-2.97,9.06-5.6499,13.67-8.34C431.36,712.28,435.43,709.01,440.27,707.14z M399.93,694.9299
		c2.2401-1.73,4.51-3.45,7.02-4.7999c-1.18,3.4401-4,5.91-6.15,8.73c-7.24,8.41-13.35,17.78-20.86,25.92
		c-2.99,0.08-5.89-0.97-8.81-1.51c-3.27-0.8401-7.04-1.3601-9.09-4.38C375.07,711.5801,387.85,703.76,399.93,694.9299z
		 M356.33,683.79c0.57-0.15,1.71-0.45,2.28-0.6001c-6.03,10.4401-12.5,20.6101-18.96,30.79c-4.66,0.3301-9.13-1.1899-13.66-2
		c-2.24-0.28-4.1-1.61-5.89-2.88c5.07-5.88,12.14-9.34,18.59-13.42C344.48,691.5801,350.26,687.46,356.33,683.79z M331.32,732.86
		c-2.14,0.37-2.79-2.0299-3.91-3.2699c-2.86-4.6301-7.09-8.3801-9.21-13.4401c3.25,0.5,6.43,1.39,9.59,2.2899
		C328.7,723.3,330.03,728.0801,331.32,732.86z M312.72,676.64c10.62-10.63,20.42-22.02,30.56-33.11c1.54-1.6201,2.84-3.45,4-5.3501
		c-0.02,0.6801-0.07,2.02-0.09,2.7001c-4.05,6.2001-9.08,11.67-13.39,17.6901c-9.06,11.9099-17.02,24.5898-25.17,37.1199
		c-1.12,1.74-2.02,3.6201-2.75,5.5701c0.71,0.46,2.13,1.39,2.84,1.85c5.88-2.98,10.08-8.65,16.31-11.0599
		c-2.55,5.9099-6.95,10.8199-12.04,14.6799c2.1-0.24,3.67,1.5801,1.25,2.38c-1.74-2.5199-4.77-1.88-7.39-2.01
		c-0.03-0.75-0.08-2.25-0.1-3h-2.72c-0.22,0.52-0.66,1.55-0.88,2.0699c-4.79,0.0601-9.51-0.8199-14.21-1.6199
		c-1.94-0.26-3.58-1.3301-5.09-2.48c1.72-2.03,3.83-3.6602,5.96-5.23C297.73,690.4399,305.59,683.9299,312.72,676.64z
		 M285.91,690.96c-1.89,3.5901-3.03,7.55-5.16,11.02c-2.3,1.21-5.22-0.12-7.72-0.23c-1.51-0.52-4.18-0.48-4.03-2.63
		c1.16-1.5299,2.62-2.7799,4.09-3.99c5.62-4.4501,10.58-9.7101,16.51-13.77C289.5,684.9,287.35,687.85,285.91,690.96z
		 M281.63,664.47c2.27-1.5601,4.39-3.3999,7.01-4.3999c-3.28,7.6199-9.05,13.8499-13.37,20.8899c-1.95,2.8301-3.43,6.0801-6.18,8.26
		c-1.1,3.53-3.55,6.38-5.53,9.42c-0.88,1.38-2.76,1.2999-4.19,1.21c-3.92-0.41-7.84-0.7899-11.71-1.5099
		c2.86-3.1101,8.77-2.27,10.55-6.29c-6.67,1.52-13.25,3.52-20.03,4.46c1.57-3.3401,4.67-5.53,7.37-7.89
		C257.37,680.26,269.73,672.73,281.63,664.47z M264.85,715.87c-4.23-2.75-8.42-5.9-11.23-10.16c2.83,0.16,5.65,0.5901,8.39,1.3401
		C263.03,709.96,264.19,712.8401,264.85,715.87z M250,665.86c4.48-3.83,8.2-8.5,12.98-11.97c-0.22,2.87-2.58,4.76-4.21,6.9
		c-3.42,4.26-7.49,7.98-10.44,12.61c-3.67,4.9301-7.64,9.65-11.11,14.73c-1.8,2.5599-2.9901,5.61-5.33,7.76
		c-4.32,0.1-8.91-0.2999-12.92-1.9501c0.23-2.1099,2.47-3.01,3.81-4.3599c6.83-4.9801,12.84-10.9501,19.37-16.29
		C245.27,671.37,247.17,668.12,250,665.86z M194.21,685.22c14.95-10.27,29.87-20.62,44.02-32c1.27-1.12,2.75-1.98,4.4901-2.1399
		c-6.03,9.25-12.97,17.8999-18.97,27.2c-9.25,3.3899-18.66,6.3-28.01,9.3999c-1.55,0.4701-3.14,0.78-4.75,0.92
		C191.89,687.3101,192.82,686.01,194.21,685.22z M203.55,693.26c3.81-3.96,9.46-5.29,14.1-8.04c-0.39,3.25-2.51,6.1201-4.78,8.3601
		C209.77,694.04,206.62,693.6699,203.55,693.26z M209.4,704.52c-3.01-0.3101-6.04-1.74-7.66-4.38c2.07,0.15,4.12,0.5,6.14,0.9501
		C208.39,702.22,208.9,703.37,209.4,704.52z M195.96,707.52c-3.56,2.36-7.92,2.8899-11.97,3.98c-2.68-1.11-5.74-2.77-7.14-5.36
		c3.62-2.41,7.86-4.5599,12.17-5.63C191.42,702.75,193.56,705.26,195.96,707.52z M175.27,619.47c1.73-2.36,4.13-4.04,6.32-5.9199
		c2.53-2,2.85-5.55,5.09-7.8c10.33-12.63,19.94-25.85,30.41-38.36c-2.45,6.91-7.14,12.73-10.75,19.0499
		c-10.07,13.67-19.74,27.6201-29.04,41.8201c-1.93,3.47-5.95,4.59-9.07,6.6599c-3.69,2.03-7.0099,4.9001-11.23,5.8101
		C162.76,633.38,169.1,626.48,175.27,619.47z M147.9,684.49c4.97-5.84,11.06-10.61,16.55-15.9399
		c1.04,3.8699-2.24,7.4099-3.6,10.8999C156.34,680.6599,152.64,684.0701,147.9,684.49z M159.84,700.77c-3.13,1.27-6.5-0.2-8.59-2.64
		C154.37,698.0901,158.64,696.89,159.84,700.77z M140.01,683.01c-1.34,1.97-2.34,4.22-4,5.96c-5.11,0.4301-10.28,0.48-15.39,0.13
		c6.25-5.3099,13.18-9.7799,19.47-15.0499c3.61-2.6301,6.77-5.9,10.77-7.9501C148.04,672.21,143.53,677.3101,140.01,683.01z
		 M146.97,705.54c-2.9301,2.1599-6.28-0.17-8.3-2.42c1.63-0.63,3.33-1.0399,5.05-1.2899C144.8,703.0701,145.88,704.29,146.97,705.54
		z M156.67,598.9199c3-3.8999,5.77-8.9399,10.95-10.0399c-10.96,15.0699-22.34,29.89-32.32,45.65
		c-2.37,3.4399-3.77,7.8999-7.66,9.99c-1.99,1.28-4.11,2.35-6.31,3.22c4.26-7.29,9.91-13.62,14.86-20.4199
		C143.21,618,150.13,608.5901,156.67,598.9199z M129.61,582.62c5.95-6.73,11.23-14.16,18.14-19.9501
		c-0.99,4.7201-4.69,8.0801-7.02,12.1401c-2.9,4.0599-4.67,9.1399-8.92,12.0699c-2.82,1.98-5.35,4.65-8.92,5.2001
		C124.9,588.77,127,585.49,129.61,582.62z M92.99,632.1599c1.4-2.5898,2.68-5.3398,4.89-7.3599
		c6.61-6.3401,13.04-12.8801,20.04-18.8c1.85-1.61,3.48-3.71,6.05-4.1599c-4.11,7.8999-8.26,15.7999-12.46,23.6499
		c-6.46,5.51-13.32,10.6001-19.68,16.25c-1.91,1.53-3.6,3.5801-6.11,4.12C87.53,640.98,90.58,636.74,92.99,632.1599z M46.75,585.77
		c3.92-6.97,6.73-14.53,11.04-21.27c1.17-1.98,3.32-2.98,5.38-3.77c-5.35,10.8601-10.59,21.78-15.71,32.74
		c-1.88,3.8501-5.44,6.47-8.45,9.39C40.52,596.74,44.08,591.4199,46.75,585.77z M47.88,761.94c-1.22-0.1-2.44-0.18-3.65-0.26
		c0.16-1.68-1.15-4.75,1.69-4.33c0.53,0.47,1.57,1.41,2.09,1.88c-0.68,0.26-2.05,0.79-2.73,1.05
		C45.64,761.25,47.09,761.32,47.88,761.94z M42.43,656.6c-0.29-3.96,3.09-6.6901,5.21-9.61C46.91,650.63,45.87,654.5701,42.43,656.6
		z M46.38,691.9099c1.53-2.21,3.84-3.6299,6.28-4.6399C53.51,691.2,49.5,692.5601,46.38,691.9099z M56.15,713.0701
		c-0.73,3.0699-0.72,6.8398-3.21,9.08c-1.22-4.59-3-9.0599-3.52-13.8C52.06,709.15,54.65,710.71,56.15,713.0701z M55.83,673.14
		c-3.09,3.1901-6.26,6.36-9.81,9.0599c0.34-2.2999,1.91-4.04,3.38-5.6899c2.79-3.0801,5.02-6.63,7.93-9.61
		C58.8,668.97,57.15,671.47,55.83,673.14z M36.7,690.14c0.8-1.6801,3.99-0.5599,2.35,1.15C38.24,692.6799,35.35,691.75,36.7,690.14z
		 M38.58,718.9299c-1.06-5.7799-3.01-11.3499-3.87-17.1599c2.57-0.05,5.14-0.0901,7.71-0.0601c0.13,7.4,0.7,14.77,1.75,22.1001
		C41.91,722.8,38.72,721.9199,38.58,718.9299z M69.41,877.05c0.06,3.08-2.78,0.33-3.0601-1.04c-0.8,0.32-1.6,0.66-2.4,1.01
		c-5.36-2.08-10.82-3.86-16.32-5.52c-4.62-1.36-8.89-3.67-13.57-4.8c-4.11-1.43-8.49-2.24-12.3-4.4c5.99,0.26,12.14,0.48,17.94,2.19
		c1.59-0.13,3.15-0.53,4.72-0.78c-1.09-0.78-2.19-1.54-3.29-2.28c1.48-7.99,2.61-16.05,4.57-23.94c5.84,0.64,11.55,2.03,17.33,3.05
		c1.7599,0.1,2.56,1.86,2.3,3.43c-0.06,9.3701-0.12,18.73-0.1,28.1c0.53-0.08,1.59-0.23,2.11-0.3c0.7-4.01,0.79-8.11,1.71-12.06
		l1.21-1.06C69.99,864.78,69.91,870.93,69.41,877.05z M61.18,717.55c1.76-0.79,3.1,1.0699,4.49,1.84
		c1.37,1.25,4.13,2.1901,3.43,4.5399c-0.55,3.8301-1.36,7.6301-1.86,11.4701c-2.2-0.52-4.62-0.83-6.35-2.42
		C60.49,727.8401,61.22,722.6899,61.18,717.55z M63.8,690.95c-2.47,0.04-4.95,0.05-7.42,0.0701c-0.07-1.62-0.57-3.52,0.78-4.78
		c1.98-2.3999,3.73-5.0801,6.28-6.9299c7.39-5.2001,14.63-10.6201,21.62-16.3401c3.93-2.87,7.48-6.28,11.75-8.6499
		c-0.99,3.2999-2.75,6.27-4.19,9.3799c-1.14,2.3501-2.32,4.8301-4.57,6.3401C79.4,676.3,71.32,683.36,63.8,690.95z M75.9,869.05
		c-0.49,3.56-0.42,7.29-1.69,10.7c-0.5-0.2-1.5-0.61-2-0.82c0.22-5.11,1.42-10.13,2.36-15.14C76.77,864.63,75.92,867.26,75.9,869.05
		z M79.7,739.89c-0.74-0.01-2.21-0.04-2.95-0.0499c-0.95-3.8801-1.14-7.9001-1.1-11.8701c1.78,0.76,3.71,1.5,4.88,3.16
		C80.99,734.04,79.92,736.97,79.7,739.89z M80.77,708.29c-2.35-1.3-4.58-2.78-6.7-4.41c3.41-2.2101,7.11-6.6901,11.58-4.58
		c0.2,0.4099,0.59,1.22,0.78,1.6199C84.57,703.4,82.43,705.6599,80.77,708.29z M92.6,745.05c-1.7-0.3801-3.4-0.8101-5.1-1.1901
		c-0.24-2.61-0.31-5.22-0.14-7.8199c2.23,1.33,4.3,2.9099,6.24,4.6399C93.26,742.13,92.93,743.5801,92.6,745.05z M91.87,716.99
		c-3.04-1.01-5.5-3.4199-7.52-5.84c1.72-0.9501,3.42-1.9301,5.22-2.7301c3.23-1.6799,5.39,2.4301,7.07,4.5601
		C95.33,714.6,93.67,715.9399,91.87,716.99z M96.15,720.6599c-1.34-2.7699,3.11-2.6399,4.83-2.8599
		c2.54,2.8199,6.2401,5.2999,6.98,9.23C103.9,725.14,100.02,722.9099,96.15,720.6599z M106.09,706.6699
		c-2.37-0.8298-4.41-2.3298-6.46-3.73c2.39-1.77,4.93-3.2999,7.44-4.8899c3.3,0.2,8.29-1.4401,9.54,2.8699
		C113.03,702.71,109.85,705.25,106.09,706.6699z M120.96,717.4399c-2.45-1.1299-5.03-2.47-6.4-4.9099
		c3.86-0.96,7.51-2.65,11.41-3.49c2.2599,0.26,3.46,2.6899,5.11,4.03C127.8,714.6899,124.61,716.8301,120.96,717.4399z
		 M136.05,728.03c-2.58,0.45-4.32-2-6.2-3.28c3.03-1.01,5.98-2.3401,9.1299-2.9099c2.27-0.28,3.63,1.8699,5.14,3.1499
		C141.44,726.01,138.85,727.36,136.05,728.03z M150.2,852.04l0.58-1.37c3.22,0.11,6.45,1.08,9.43,2.32c0.03,0.6,0.08,1.79,0.11,2.38
		C156.75,855.06,153.32,853.74,150.2,852.04z M151.99,742.02c-3.02-1.6899-6-3.88-8.07-6.71c3.03-0.49,6-1.3501,9.04-1.8201
		c3.35,1.26,5.98,4.05,8.17,6.8301C158.08,740.87,155.09,741.8,151.99,742.02z M166.91,753.2c-1.6201,0.38-2.94-0.55-3.57-1.99
		c3.7,0.34,8.79-2.54,11.44,0.99C172.2,752.78,169.56,753.13,166.91,753.2z M166.44,690.04c7.02-4.16,14.18-8.1001,21.19-12.28
		c1.4-0.9199,3-1.45,4.61-1.86c-3.43,5-7.33,9.7-10.19,15.08C176.88,690.6,171.37,691.98,166.44,690.04z M177.28,870.1l-1.59,0.77
		c0.14-2.68,0.45-5.33,0.79-7.97C180.11,863.39,177.82,867.75,177.28,870.1z M189.86,880.28c-1.79-1.08-3.56-2.19-5.35-3.26
		c0.08-3.04,0.48-6.06,1.03-9.04c2.79,0.71,5.05,2.7,6.88,4.85c1.29,2.54,1.05,5.55,1.22,8.34
		C192.46,882.37,191,880.74,189.86,880.28z M184.27,769.74c-3.12-2.06-6.29-4.41-8.2-7.69c4.24,0.36,9.53-1.53,12.81,2.08
		c2.35,2.07,4.76,4.09,7.16,6.12C192.18,771,188.04,770.9,184.27,769.74z M193.89,719.9099c3.08-1.3198,6.13-2.7899,9.36-3.71
		c1.93-0.0699,3.2,1.8,4.54,2.9501c5.1801,5.46,10.9901,10.33,15.8,16.13c-3.2,0.26-6.41,0.85-9.62,0.6299
		c-2.44-1.0399-4.29-3.0199-6.35-4.6099C203.11,727.4199,198.2,724.02,193.89,719.9099z M222.36,901.68
		c-7.2-4.58-14.15-9.55-21.44-13.98c-0.31-2.72-0.5699-5.44-0.8199-8.15c1.29,0.41,2.68,0.72,3.72,1.67
		c7.49,5.92,15.34,11.36,22.94,17.13c2.19,2.52,3.31,5.78,4.94,8.66C228.09,906.24,225.41,903.55,222.36,901.68z M222.92,795.49
		c4-0.19,8.22,0.7,10.4901,4.35C229.82,798.68,225.85,798.05,222.92,795.49z M227.22,747.6699c-2.4-1.26-4.2-3.3699-6.23-5.1099
		c2.57-0.91,5.23-2.1201,8.03-1.8c2.79,1.86,5.42,4.25,6.99,7.25C233.09,747.9299,230.09,748.33,227.22,747.6699z M249.51,767.67
		c-3.7-3.69-8.16-6.63-11.49-10.66c1.59-1.49,4.01-0.81,5.99-1.1c4.02,5.2401,7.97,10.54,11.82,15.9
		C253.02,771.87,251.52,769.17,249.51,767.67z M265.23,747.64c-2.9901-1.9-5.1-4.84-7.71-7.1901c-1.87-1.95-4.35-3.5-5.3-6.1399
		c-2.2-1.25-4.19-2.8301-5.97-4.6201c-4.71-4.6299-9.93-8.6899-14.7-13.24c-3-2.9099-6.67-5.0499-9.32-8.2999
		c3.63-1.3,7.03-3.28,10.79-4.17c4.24-0.22,10.21-0.6,11.87,4.3501c8.55,10.5699,16.06,21.95,24.38,32.72
		c1.7,2.27,4.1,4.24,4.64,7.1699C271.02,748.04,268.07,748.25,265.23,747.64z M276.98,757.92c-2.3701-2.16-5.65-3.66-6.83-6.82
		c2.27-0.0699,4.59-0.5,6.85-0.05c3.47,3.25,5.85,7.54,7.73,11.87C281.49,762.53,279.48,759.69,276.98,757.92z M284.15,729.97
		c-5.36-7.45-12.58-13.6899-16.68-21.95c4.9-0.3301,9.78,0.61,14.48,1.9399c1.42,0.14,2.25,1.3,2.62,2.5901
		c1.81,5.1899,3.3,10.5,5.02,15.73c1.39,4.3101,3.28,8.48,4.06,12.98C289.81,738.12,287.4,733.6599,284.15,729.97z M346.34,794.9
		c-8.91-13.85-17.84-27.67-26.66-41.57c-5.83-9.35-12.28-18.29-18.94-27.06c-2.88-5.1101-7.65-8.74-10.78-13.66
		c0.09-0.3099,0.26-0.92,0.35-1.23c5.89-0.0599,11.7,1.4401,17.36,2.98c1.74,4.67,4.6,8.8099,6.47,13.4301
		C324,750.61,336.37,772.2,347.83,794.22L346.34,794.9z M357.42,762.63c-7.57-14.54-16.38-28.39-24.59-42.58
		c4.52-0.3,9.03,1.1199,13.07,2.98c4.95,15.97,12.1,31.1899,16.91,47.22C359.96,768.67,359.18,765.18,357.42,762.63z M384.5,774.57
		c-6.28-10.36-12.77-20.6-19.71-30.53c-4.4301-6.76-9.95-12.8701-13.45-20.2c6.78,0.9399,13.17,3.5698,19.77,5.2899
		c5.9,17.9601,13.8101,35.22,19.28,53.32C387.2,780.94,386.34,777.27,384.5,774.57z M382.37,737.23
		c-1.41-1.87-2.66-3.87-3.46-6.0701c3.7,0.6101,7.33,1.7001,10.72,3.3301c1,3.11,1.48,6.37,2.41,9.51
		c1,3.6699,2.71,7.24,2.5699,11.12C389.89,749.65,386.54,743.13,382.37,737.23z M384.45,726.14c-0.24-2.4701,2.88-3.02,4.33-4.41
		c6.77-5.3101,14.2-9.6899,21.26-14.59c2.96-1.99,5.71-4.4801,9.31-5.2301c-7.41,9.1301-14.66,18.4401-21.4,28.0601
		C393.23,730.1799,388.57,728.3,384.45,726.14z M411.35,873.6c-2.79-5.83-6.44-11.34-8.17-17.59c2.36,1.69,3.36,4.5,4.77,6.93
		c6.07,10.38,12.11,20.8,18.29,31.12c0.15,0.69,0.45,2.07,0.6,2.76C418.36,891.76,416.03,881.6,411.35,873.6z M430.93,905.78
		c4.23,0.5699,5.7401,5.16,7.06,8.58C434.64,912.5,432.42,909.21,430.93,905.78z M506.63,969.5c-1.03,2.82-4.21,3.41-6.06,5.47
		c-0.48,0.1-1.43,0.3101-1.9,0.41c-0.46,0.57-1.36,1.71-1.8101,2.28c-2.3-0.64-2.48-3.65-3.33-5.52c1.13-1.47,1.89-3.33,1.23-5.17
		c-6-16.47-13.49-32.4-18.66-49.17c-8.35-23.45-16.37-47.02-25.79-70.07c-13.51-31.56-27.55-62.95-43.73-93.26
		c-3.36-6.36-8.37-11.84-10.83-18.6599c6.33,1.47,12.44,3.8199,18.41,6.3799c1.7,5.3801,3.91,10.5801,5.74,15.92
		c3.67,12.41,8.46,24.45,12.34,36.79c10.33,28.95,23.36,56.86,37.7,84.03c11.03,27.64,22.64,55.06,35.08,82.11
		C506.12,963.63,508.55,966.69,506.63,969.5z M522.94,922.86c-10.26-33.61-22.11-66.73-35.31-99.3
		c-5.57-13.96-11.38-27.84-17.74-41.46c-3.45-8.7599-8.6-16.66-13.05-24.89c4.31,0.56,6.82,4.52,9.45,7.54
		c4.1,5.48,9.3199,10.04,13.38,15.53c3.9399,8.81,6.97,17.99,10.91,26.8c10.05,22.53,18.29,45.83,29.17,67.99
		c7.3,17.81,14.95,35.48,23.41,52.77c1.98,3.69,3.96,7.47,4.57,11.67c-7,1.64-13.03-3.24-19.7-4.28
		C525.21,931.63,524.3,927.1,522.94,922.86z"/>
	<path fill="#0E0E0E" d="M2586.77,476.9c2.46-5.68,3.05-11.94,5.23-17.72v12.07c-4.1299,8.91-9.1201,17.37-13.8999,25.93
		c-0.53,1.39-2.0701,1.73-3.2102,2.3c0.9702-3.43,2.2202-6.78,3.4702-10.12c0.5999-0.12,1.7898-0.37,2.3799-0.49
		C2582.9199,484.97,2585.0801,481.05,2586.77,476.9z"/>
	<path fill="#0E0E0E" d="M642.87,578.33c-0.41-2.79,2.07-3.93,4.28-4.52C646.8,576.14,644.83,577.41,642.87,578.33z"/>
	<path fill="#0E0E0E" d="M699.82,894.82c3.58-0.1,5.85,2.96,8.26,5.13c20.32,20.38,39.77,41.59,58.35,63.57
		c5.94,6.7,12.12,13.2,17.8,20.13c3.33,4.0699,7.11,7.86,9.76,12.44c-4.02-1.85-5.96-6.13-8.89-9.2
		c-4.45-4.89-8.18-10.42-13.1-14.85c-15.7-17.32-30.05-35.87-46.93-52.1c-4.18-4.12-7.14-9.85-12.75-12.23l0.56,1.97
		c-1-2.44-2.97-0.33-4.18,0.65c-2.93-3.55-5.17-7.58-7.81-11.33C700.01,897.79,700.11,896.19,699.82,894.82z"/>
</g>
</svg>
